<mxfile host="app.diagrams.net" modified="2022-03-15T14:22:18.572Z" agent="5.0 (Windows NT 10.0; Win64; x64) AppleWebKit/537.36 (KHTML, like Gecko) Chrome/99.0.4844.51 Safari/537.36 Edg/99.0.1150.39" etag="BRPIACsjfc4SUiYM2nnA" version="17.1.2" type="github">
  <diagram id="ni6ns9s3trIMgnXwsqBh" name="Page-1">
    <mxGraphModel dx="1134" dy="777" grid="1" gridSize="10" guides="1" tooltips="1" connect="1" arrows="1" fold="1" page="1" pageScale="1" pageWidth="1169" pageHeight="827" math="0" shadow="0">
      <root>
        <mxCell id="0" />
        <mxCell id="1" parent="0" />
        <mxCell id="4iwTf2Q5Y9JTk8ooHyW_-1" value="Cliente" style="rounded=0;whiteSpace=wrap;html=1;strokeWidth=1;perimeterSpacing=0;" parent="1" vertex="1">
          <mxGeometry x="320" y="280" width="120" height="40" as="geometry" />
        </mxCell>
        <mxCell id="4iwTf2Q5Y9JTk8ooHyW_-2" value="" style="endArrow=none;html=1;rounded=0;fillColor=#000000;exitX=0.5;exitY=1;exitDx=0;exitDy=0;entryX=0.25;entryY=0;entryDx=0;entryDy=0;" parent="1" source="4iwTf2Q5Y9JTk8ooHyW_-3" target="4iwTf2Q5Y9JTk8ooHyW_-1" edge="1">
          <mxGeometry width="50" height="50" relative="1" as="geometry">
            <mxPoint x="331.0799999999999" y="261" as="sourcePoint" />
            <mxPoint x="331" y="270" as="targetPoint" />
          </mxGeometry>
        </mxCell>
        <mxCell id="4iwTf2Q5Y9JTk8ooHyW_-3" value="" style="ellipse;whiteSpace=wrap;html=1;aspect=fixed;strokeWidth=1;fillColor=#000000;" parent="1" vertex="1">
          <mxGeometry x="345" y="240" width="10" height="10" as="geometry" />
        </mxCell>
        <mxCell id="4iwTf2Q5Y9JTk8ooHyW_-4" value="ID" style="text;html=1;align=center;verticalAlign=middle;resizable=0;points=[];autosize=1;strokeColor=none;fillColor=none;" parent="1" vertex="1">
          <mxGeometry x="335" y="221" width="30" height="20" as="geometry" />
        </mxCell>
        <mxCell id="4iwTf2Q5Y9JTk8ooHyW_-42" value="Referente" style="rounded=0;whiteSpace=wrap;html=1;strokeWidth=1;perimeterSpacing=0;" parent="1" vertex="1">
          <mxGeometry x="520" y="560" width="120" height="40" as="geometry" />
        </mxCell>
        <mxCell id="4iwTf2Q5Y9JTk8ooHyW_-43" value="rappresentazione" style="rhombus;whiteSpace=wrap;html=1;" parent="1" vertex="1">
          <mxGeometry x="520" y="440" width="120" height="40" as="geometry" />
        </mxCell>
        <mxCell id="4iwTf2Q5Y9JTk8ooHyW_-44" value="" style="endArrow=none;html=1;rounded=0;exitX=0.5;exitY=0;exitDx=0;exitDy=0;entryX=0.75;entryY=1;entryDx=0;entryDy=0;" parent="1" source="4iwTf2Q5Y9JTk8ooHyW_-43" target="4iwTf2Q5Y9JTk8ooHyW_-1" edge="1">
          <mxGeometry width="50" height="50" relative="1" as="geometry">
            <mxPoint x="491" y="601" as="sourcePoint" />
            <mxPoint x="390" y="400" as="targetPoint" />
            <Array as="points">
              <mxPoint x="580" y="380" />
              <mxPoint x="540" y="380" />
              <mxPoint x="410" y="380" />
            </Array>
          </mxGeometry>
        </mxCell>
        <mxCell id="4iwTf2Q5Y9JTk8ooHyW_-45" value="" style="endArrow=none;html=1;rounded=0;exitX=0.5;exitY=0;exitDx=0;exitDy=0;entryX=0.5;entryY=1;entryDx=0;entryDy=0;" parent="1" source="4iwTf2Q5Y9JTk8ooHyW_-42" target="4iwTf2Q5Y9JTk8ooHyW_-43" edge="1">
          <mxGeometry width="50" height="50" relative="1" as="geometry">
            <mxPoint x="531" y="481" as="sourcePoint" />
            <mxPoint x="611" y="501" as="targetPoint" />
          </mxGeometry>
        </mxCell>
        <mxCell id="4iwTf2Q5Y9JTk8ooHyW_-46" value="" style="ellipse;whiteSpace=wrap;html=1;aspect=fixed;strokeWidth=1;fillColor=none;" parent="1" vertex="1">
          <mxGeometry x="525" y="520" width="10" height="10" as="geometry" />
        </mxCell>
        <mxCell id="4iwTf2Q5Y9JTk8ooHyW_-47" value="" style="endArrow=none;html=1;rounded=0;fillColor=#000000;exitX=0.5;exitY=1;exitDx=0;exitDy=0;entryX=0.083;entryY=0.01;entryDx=0;entryDy=0;entryPerimeter=0;" parent="1" source="4iwTf2Q5Y9JTk8ooHyW_-46" target="4iwTf2Q5Y9JTk8ooHyW_-42" edge="1">
          <mxGeometry width="50" height="50" relative="1" as="geometry">
            <mxPoint x="471" y="571" as="sourcePoint" />
            <mxPoint x="521" y="571" as="targetPoint" />
          </mxGeometry>
        </mxCell>
        <mxCell id="4iwTf2Q5Y9JTk8ooHyW_-48" value="Nome ref." style="text;html=1;align=center;verticalAlign=middle;resizable=0;points=[];autosize=1;strokeColor=none;fillColor=none;" parent="1" vertex="1">
          <mxGeometry x="496" y="500" width="70" height="20" as="geometry" />
        </mxCell>
        <mxCell id="4iwTf2Q5Y9JTk8ooHyW_-49" value="" style="ellipse;whiteSpace=wrap;html=1;aspect=fixed;strokeWidth=1;fillColor=none;" parent="1" vertex="1">
          <mxGeometry x="625" y="630" width="10" height="10" as="geometry" />
        </mxCell>
        <mxCell id="4iwTf2Q5Y9JTk8ooHyW_-50" value="" style="endArrow=none;html=1;rounded=0;fillColor=#000000;entryX=0.916;entryY=1.012;entryDx=0;entryDy=0;exitX=0.5;exitY=0;exitDx=0;exitDy=0;entryPerimeter=0;" parent="1" source="4iwTf2Q5Y9JTk8ooHyW_-49" target="4iwTf2Q5Y9JTk8ooHyW_-42" edge="1">
          <mxGeometry width="50" height="50" relative="1" as="geometry">
            <mxPoint x="491" y="591" as="sourcePoint" />
            <mxPoint x="521" y="591" as="targetPoint" />
          </mxGeometry>
        </mxCell>
        <mxCell id="4iwTf2Q5Y9JTk8ooHyW_-51" value="Cognome ref." style="text;html=1;align=center;verticalAlign=middle;resizable=0;points=[];autosize=1;strokeColor=none;fillColor=none;" parent="1" vertex="1">
          <mxGeometry x="585" y="640" width="90" height="20" as="geometry" />
        </mxCell>
        <mxCell id="4iwTf2Q5Y9JTk8ooHyW_-54" value="" style="ellipse;whiteSpace=wrap;html=1;aspect=fixed;strokeWidth=1;fillColor=#000000;" parent="1" vertex="1">
          <mxGeometry x="625" y="520" width="10" height="10" as="geometry" />
        </mxCell>
        <mxCell id="4iwTf2Q5Y9JTk8ooHyW_-55" value="(0,1)" style="text;html=1;strokeColor=none;fillColor=none;align=center;verticalAlign=middle;whiteSpace=wrap;rounded=0;" parent="1" vertex="1">
          <mxGeometry x="396" y="314" width="60" height="30" as="geometry" />
        </mxCell>
        <mxCell id="4iwTf2Q5Y9JTk8ooHyW_-56" value="(1,1)" style="text;html=1;strokeColor=none;fillColor=none;align=center;verticalAlign=middle;whiteSpace=wrap;rounded=0;" parent="1" vertex="1">
          <mxGeometry x="565" y="533" width="60" height="30" as="geometry" />
        </mxCell>
        <mxCell id="4iwTf2Q5Y9JTk8ooHyW_-58" value="creazione" style="rhombus;whiteSpace=wrap;html=1;" parent="1" vertex="1">
          <mxGeometry x="560" y="280" width="120" height="40" as="geometry" />
        </mxCell>
        <mxCell id="4iwTf2Q5Y9JTk8ooHyW_-59" value="" style="endArrow=none;html=1;rounded=0;exitX=1;exitY=0.5;exitDx=0;exitDy=0;entryX=0;entryY=0.5;entryDx=0;entryDy=0;" parent="1" source="4iwTf2Q5Y9JTk8ooHyW_-1" target="4iwTf2Q5Y9JTk8ooHyW_-58" edge="1">
          <mxGeometry width="50" height="50" relative="1" as="geometry">
            <mxPoint x="551" y="341" as="sourcePoint" />
            <mxPoint x="601" y="291" as="targetPoint" />
          </mxGeometry>
        </mxCell>
        <mxCell id="4iwTf2Q5Y9JTk8ooHyW_-67" value="Via" style="text;html=1;align=center;verticalAlign=middle;resizable=0;points=[];autosize=1;strokeColor=none;fillColor=none;" parent="1" vertex="1">
          <mxGeometry x="585" y="161" width="30" height="20" as="geometry" />
        </mxCell>
        <mxCell id="4iwTf2Q5Y9JTk8ooHyW_-68" value="Numero civico" style="text;html=1;align=center;verticalAlign=middle;resizable=0;points=[];autosize=1;strokeColor=none;fillColor=none;" parent="1" vertex="1">
          <mxGeometry x="495" y="20" width="90" height="20" as="geometry" />
        </mxCell>
        <mxCell id="4iwTf2Q5Y9JTk8ooHyW_-69" value="CittÃ " style="text;html=1;align=center;verticalAlign=middle;resizable=0;points=[];autosize=1;strokeColor=none;fillColor=none;" parent="1" vertex="1">
          <mxGeometry x="620" y="161" width="40" height="20" as="geometry" />
        </mxCell>
        <mxCell id="4iwTf2Q5Y9JTk8ooHyW_-72" value="Nazione" style="text;html=1;align=center;verticalAlign=middle;resizable=0;points=[];autosize=1;strokeColor=none;fillColor=none;" parent="1" vertex="1">
          <mxGeometry x="645" y="20" width="60" height="20" as="geometry" />
        </mxCell>
        <mxCell id="4iwTf2Q5Y9JTk8ooHyW_-75" value="Ordine" style="rounded=0;whiteSpace=wrap;html=1;strokeWidth=1;perimeterSpacing=0;" parent="1" vertex="1">
          <mxGeometry x="800" y="280.5" width="120" height="40" as="geometry" />
        </mxCell>
        <mxCell id="4iwTf2Q5Y9JTk8ooHyW_-76" value="Stato" style="text;html=1;align=center;verticalAlign=middle;resizable=0;points=[];autosize=1;strokeColor=none;fillColor=none;" parent="1" vertex="1">
          <mxGeometry x="881" y="361" width="40" height="20" as="geometry" />
        </mxCell>
        <mxCell id="4iwTf2Q5Y9JTk8ooHyW_-77" value="Pacco" style="rounded=0;whiteSpace=wrap;html=1;strokeWidth=1;perimeterSpacing=0;" parent="1" vertex="1">
          <mxGeometry x="1200" y="280.5" width="120" height="40" as="geometry" />
        </mxCell>
        <mxCell id="4iwTf2Q5Y9JTk8ooHyW_-78" value="" style="endArrow=none;html=1;rounded=0;fillColor=#000000;exitX=0.5;exitY=1;exitDx=0;exitDy=0;entryX=0.166;entryY=-0.004;entryDx=0;entryDy=0;entryPerimeter=0;" parent="1" source="4iwTf2Q5Y9JTk8ooHyW_-79" target="4iwTf2Q5Y9JTk8ooHyW_-75" edge="1">
          <mxGeometry width="50" height="50" relative="1" as="geometry">
            <mxPoint x="820" y="260.5" as="sourcePoint" />
            <mxPoint x="820" y="270" as="targetPoint" />
          </mxGeometry>
        </mxCell>
        <mxCell id="4iwTf2Q5Y9JTk8ooHyW_-79" value="" style="ellipse;whiteSpace=wrap;html=1;aspect=fixed;strokeWidth=1;fillColor=#000000;" parent="1" vertex="1">
          <mxGeometry x="815" y="240.5" width="10" height="10" as="geometry" />
        </mxCell>
        <mxCell id="4iwTf2Q5Y9JTk8ooHyW_-80" value="Codice ordine" style="text;html=1;align=center;verticalAlign=middle;resizable=0;points=[];autosize=1;strokeColor=none;fillColor=none;" parent="1" vertex="1">
          <mxGeometry x="775" y="220.5" width="90" height="20" as="geometry" />
        </mxCell>
        <mxCell id="4iwTf2Q5Y9JTk8ooHyW_-81" value="" style="ellipse;whiteSpace=wrap;html=1;aspect=fixed;strokeWidth=1;fillColor=none;" parent="1" vertex="1">
          <mxGeometry x="815" y="350" width="10" height="10" as="geometry" />
        </mxCell>
        <mxCell id="4iwTf2Q5Y9JTk8ooHyW_-82" value="Contatto" style="text;html=1;align=center;verticalAlign=middle;resizable=0;points=[];autosize=1;strokeColor=none;fillColor=none;" parent="1" vertex="1">
          <mxGeometry x="790" y="360" width="60" height="20" as="geometry" />
        </mxCell>
        <mxCell id="4iwTf2Q5Y9JTk8ooHyW_-83" value="" style="endArrow=none;html=1;rounded=0;fillColor=#000000;entryX=0.5;entryY=0;entryDx=0;entryDy=0;exitX=0.5;exitY=1;exitDx=0;exitDy=0;" parent="1" source="4iwTf2Q5Y9JTk8ooHyW_-84" target="4iwTf2Q5Y9JTk8ooHyW_-77" edge="1">
          <mxGeometry width="50" height="50" relative="1" as="geometry">
            <mxPoint x="1219" y="260.5" as="sourcePoint" />
            <mxPoint x="1218.9200000000005" y="280.5000000000002" as="targetPoint" />
          </mxGeometry>
        </mxCell>
        <mxCell id="4iwTf2Q5Y9JTk8ooHyW_-84" value="" style="ellipse;whiteSpace=wrap;html=1;aspect=fixed;strokeWidth=1;fillColor=#000000;" parent="1" vertex="1">
          <mxGeometry x="1255" y="240.5" width="10" height="10" as="geometry" />
        </mxCell>
        <mxCell id="4iwTf2Q5Y9JTk8ooHyW_-85" value="CodicePacco" style="text;html=1;align=center;verticalAlign=middle;resizable=0;points=[];autosize=1;strokeColor=none;fillColor=none;" parent="1" vertex="1">
          <mxGeometry x="1214" y="220" width="90" height="20" as="geometry" />
        </mxCell>
        <mxCell id="4iwTf2Q5Y9JTk8ooHyW_-86" value="aggregazione" style="rhombus;whiteSpace=wrap;html=1;" parent="1" vertex="1">
          <mxGeometry x="999" y="280.5" width="120" height="40" as="geometry" />
        </mxCell>
        <mxCell id="4iwTf2Q5Y9JTk8ooHyW_-87" value="" style="endArrow=none;html=1;rounded=0;entryX=0;entryY=0.5;entryDx=0;entryDy=0;exitX=1;exitY=0.5;exitDx=0;exitDy=0;" parent="1" source="4iwTf2Q5Y9JTk8ooHyW_-86" target="4iwTf2Q5Y9JTk8ooHyW_-77" edge="1">
          <mxGeometry width="50" height="50" relative="1" as="geometry">
            <mxPoint x="1099" y="370.5" as="sourcePoint" />
            <mxPoint x="1149" y="320.5" as="targetPoint" />
          </mxGeometry>
        </mxCell>
        <mxCell id="4iwTf2Q5Y9JTk8ooHyW_-88" value="" style="endArrow=none;html=1;rounded=0;entryX=1;entryY=0.5;entryDx=0;entryDy=0;exitX=0;exitY=0.5;exitDx=0;exitDy=0;" parent="1" source="4iwTf2Q5Y9JTk8ooHyW_-86" target="4iwTf2Q5Y9JTk8ooHyW_-75" edge="1">
          <mxGeometry width="50" height="50" relative="1" as="geometry">
            <mxPoint x="1102" y="370.5" as="sourcePoint" />
            <mxPoint x="1152" y="320.5" as="targetPoint" />
          </mxGeometry>
        </mxCell>
        <mxCell id="4iwTf2Q5Y9JTk8ooHyW_-89" value="immissione" style="rhombus;whiteSpace=wrap;html=1;" parent="1" vertex="1">
          <mxGeometry x="1400.5" y="400" width="120" height="40" as="geometry" />
        </mxCell>
        <mxCell id="4iwTf2Q5Y9JTk8ooHyW_-90" value="" style="endArrow=none;html=1;rounded=0;entryX=0.5;entryY=0;entryDx=0;entryDy=0;exitX=1;exitY=0.5;exitDx=0;exitDy=0;" parent="1" source="4iwTf2Q5Y9JTk8ooHyW_-77" target="4iwTf2Q5Y9JTk8ooHyW_-89" edge="1">
          <mxGeometry width="50" height="50" relative="1" as="geometry">
            <mxPoint x="1319" y="350.5" as="sourcePoint" />
            <mxPoint x="1369" y="300.5" as="targetPoint" />
            <Array as="points">
              <mxPoint x="1460" y="300" />
            </Array>
          </mxGeometry>
        </mxCell>
        <mxCell id="4iwTf2Q5Y9JTk8ooHyW_-91" value="" style="endArrow=none;html=1;rounded=0;exitX=0.5;exitY=1;exitDx=0;exitDy=0;entryX=0.25;entryY=0;entryDx=0;entryDy=0;" parent="1" source="4iwTf2Q5Y9JTk8ooHyW_-89" target="4iwTf2Q5Y9JTk8ooHyW_-135" edge="1">
          <mxGeometry width="50" height="50" relative="1" as="geometry">
            <mxPoint x="1530" y="310" as="sourcePoint" />
            <mxPoint x="1600" y="450" as="targetPoint" />
            <Array as="points">
              <mxPoint x="1460" y="480" />
              <mxPoint x="1830" y="480" />
            </Array>
          </mxGeometry>
        </mxCell>
        <mxCell id="4iwTf2Q5Y9JTk8ooHyW_-95" value="(1,N)" style="text;html=1;align=center;verticalAlign=middle;resizable=0;points=[];autosize=1;strokeColor=none;fillColor=none;" parent="1" vertex="1">
          <mxGeometry x="921" y="280.5" width="40" height="20" as="geometry" />
        </mxCell>
        <mxCell id="4iwTf2Q5Y9JTk8ooHyW_-96" value="(1,1)" style="text;html=1;align=center;verticalAlign=middle;resizable=0;points=[];autosize=1;strokeColor=none;fillColor=none;" parent="1" vertex="1">
          <mxGeometry x="1159" y="280.5" width="40" height="20" as="geometry" />
        </mxCell>
        <mxCell id="4iwTf2Q5Y9JTk8ooHyW_-97" value="inizializzazione" style="rhombus;whiteSpace=wrap;html=1;" parent="1" vertex="1">
          <mxGeometry x="1200" y="140" width="120" height="40" as="geometry" />
        </mxCell>
        <mxCell id="4iwTf2Q5Y9JTk8ooHyW_-111" value="" style="endArrow=none;html=1;rounded=0;entryX=0;entryY=0.5;entryDx=0;entryDy=0;exitX=0.831;exitY=0.005;exitDx=0;exitDy=0;exitPerimeter=0;" parent="1" source="4iwTf2Q5Y9JTk8ooHyW_-75" target="4iwTf2Q5Y9JTk8ooHyW_-97" edge="1">
          <mxGeometry width="50" height="50" relative="1" as="geometry">
            <mxPoint x="901" y="321" as="sourcePoint" />
            <mxPoint x="991" y="260.5" as="targetPoint" />
            <Array as="points">
              <mxPoint x="901" y="160" />
            </Array>
          </mxGeometry>
        </mxCell>
        <mxCell id="4iwTf2Q5Y9JTk8ooHyW_-115" value="QuantitÃ " style="text;html=1;align=center;verticalAlign=middle;resizable=0;points=[];autosize=1;strokeColor=none;fillColor=none;" parent="1" vertex="1">
          <mxGeometry x="1290" y="195" width="60" height="20" as="geometry" />
        </mxCell>
        <mxCell id="4iwTf2Q5Y9JTk8ooHyW_-116" value="" style="endArrow=none;html=1;rounded=0;fillColor=#000000;exitX=0.5;exitY=1;exitDx=0;exitDy=0;entryX=1;entryY=0.5;entryDx=0;entryDy=0;" parent="1" source="4iwTf2Q5Y9JTk8ooHyW_-117" target="4iwTf2Q5Y9JTk8ooHyW_-89" edge="1">
          <mxGeometry width="50" height="50" relative="1" as="geometry">
            <mxPoint x="1594.5" y="265.5" as="sourcePoint" />
            <mxPoint x="1530" y="420" as="targetPoint" />
          </mxGeometry>
        </mxCell>
        <mxCell id="4iwTf2Q5Y9JTk8ooHyW_-117" value="" style="ellipse;whiteSpace=wrap;html=1;aspect=fixed;strokeWidth=1;fillColor=none;" parent="1" vertex="1">
          <mxGeometry x="1515" y="380" width="10" height="10" as="geometry" />
        </mxCell>
        <mxCell id="4iwTf2Q5Y9JTk8ooHyW_-118" value="QuantitÃ " style="text;html=1;align=center;verticalAlign=middle;resizable=0;points=[];autosize=1;strokeColor=none;fillColor=none;" parent="1" vertex="1">
          <mxGeometry x="1490" y="361" width="60" height="20" as="geometry" />
        </mxCell>
        <mxCell id="4iwTf2Q5Y9JTk8ooHyW_-119" value="(1,N)" style="text;html=1;align=center;verticalAlign=middle;resizable=0;points=[];autosize=1;strokeColor=none;fillColor=none;" parent="1" vertex="1">
          <mxGeometry x="1324" y="280" width="40" height="20" as="geometry" />
        </mxCell>
        <mxCell id="4iwTf2Q5Y9JTk8ooHyW_-120" value="(0,N)" style="text;html=1;align=center;verticalAlign=middle;resizable=0;points=[];autosize=1;strokeColor=none;fillColor=none;" parent="1" vertex="1">
          <mxGeometry x="1470" y="460" width="40" height="20" as="geometry" />
        </mxCell>
        <mxCell id="4iwTf2Q5Y9JTk8ooHyW_-121" value="" style="endArrow=none;html=1;rounded=0;exitX=1;exitY=0.5;exitDx=0;exitDy=0;entryX=0;entryY=0.5;entryDx=0;entryDy=0;" parent="1" source="4iwTf2Q5Y9JTk8ooHyW_-58" target="4iwTf2Q5Y9JTk8ooHyW_-75" edge="1">
          <mxGeometry width="50" height="50" relative="1" as="geometry">
            <mxPoint x="751" y="351" as="sourcePoint" />
            <mxPoint x="790" y="300" as="targetPoint" />
          </mxGeometry>
        </mxCell>
        <mxCell id="4iwTf2Q5Y9JTk8ooHyW_-123" value="supervisione" style="rhombus;whiteSpace=wrap;html=1;" parent="1" vertex="1">
          <mxGeometry x="800" y="440" width="120" height="40" as="geometry" />
        </mxCell>
        <mxCell id="4iwTf2Q5Y9JTk8ooHyW_-124" value="" style="endArrow=none;html=1;rounded=0;exitX=1;exitY=0.25;exitDx=0;exitDy=0;entryX=0.5;entryY=1;entryDx=0;entryDy=0;" parent="1" source="4iwTf2Q5Y9JTk8ooHyW_-42" target="4iwTf2Q5Y9JTk8ooHyW_-123" edge="1">
          <mxGeometry width="50" height="50" relative="1" as="geometry">
            <mxPoint x="681" y="581" as="sourcePoint" />
            <mxPoint x="731" y="531" as="targetPoint" />
            <Array as="points">
              <mxPoint x="860" y="570" />
            </Array>
          </mxGeometry>
        </mxCell>
        <mxCell id="4iwTf2Q5Y9JTk8ooHyW_-125" value="" style="endArrow=none;html=1;rounded=0;exitX=0.5;exitY=0;exitDx=0;exitDy=0;entryX=0.5;entryY=1;entryDx=0;entryDy=0;" parent="1" source="4iwTf2Q5Y9JTk8ooHyW_-123" target="4iwTf2Q5Y9JTk8ooHyW_-75" edge="1">
          <mxGeometry width="50" height="50" relative="1" as="geometry">
            <mxPoint x="856" y="700" as="sourcePoint" />
            <mxPoint x="906" y="650" as="targetPoint" />
            <Array as="points">
              <mxPoint x="860" y="400" />
            </Array>
          </mxGeometry>
        </mxCell>
        <mxCell id="4iwTf2Q5Y9JTk8ooHyW_-126" value="" style="endArrow=none;html=1;rounded=0;exitX=0.5;exitY=0;exitDx=0;exitDy=0;entryX=0.167;entryY=1.013;entryDx=0;entryDy=0;entryPerimeter=0;" parent="1" source="4iwTf2Q5Y9JTk8ooHyW_-81" target="4iwTf2Q5Y9JTk8ooHyW_-75" edge="1">
          <mxGeometry width="50" height="50" relative="1" as="geometry">
            <mxPoint x="881" y="351" as="sourcePoint" />
            <mxPoint x="931" y="301" as="targetPoint" />
          </mxGeometry>
        </mxCell>
        <mxCell id="4iwTf2Q5Y9JTk8ooHyW_-128" value="(1,N)" style="text;html=1;align=center;verticalAlign=middle;resizable=0;points=[];autosize=1;strokeColor=none;fillColor=none;" parent="1" vertex="1">
          <mxGeometry x="1159" y="141" width="40" height="20" as="geometry" />
        </mxCell>
        <mxCell id="4iwTf2Q5Y9JTk8ooHyW_-129" value="(0,N)" style="text;html=1;align=center;verticalAlign=middle;resizable=0;points=[];autosize=1;strokeColor=none;fillColor=none;" parent="1" vertex="1">
          <mxGeometry x="1324" y="140" width="40" height="20" as="geometry" />
        </mxCell>
        <mxCell id="4iwTf2Q5Y9JTk8ooHyW_-130" value="" style="ellipse;whiteSpace=wrap;html=1;aspect=fixed;strokeWidth=1;fillColor=none;" parent="1" vertex="1">
          <mxGeometry x="895" y="350" width="10" height="10" as="geometry" />
        </mxCell>
        <mxCell id="4iwTf2Q5Y9JTk8ooHyW_-131" value="" style="endArrow=none;html=1;rounded=0;exitX=0.5;exitY=0;exitDx=0;exitDy=0;entryX=0.167;entryY=1.013;entryDx=0;entryDy=0;entryPerimeter=0;" parent="1" source="4iwTf2Q5Y9JTk8ooHyW_-130" edge="1">
          <mxGeometry width="50" height="50" relative="1" as="geometry">
            <mxPoint x="900" y="350.98" as="sourcePoint" />
            <mxPoint x="900.04" y="321" as="targetPoint" />
          </mxGeometry>
        </mxCell>
        <mxCell id="4iwTf2Q5Y9JTk8ooHyW_-135" value="Pianta" style="rounded=0;whiteSpace=wrap;html=1;strokeWidth=1;perimeterSpacing=0;" parent="1" vertex="1">
          <mxGeometry x="1799.5" y="640" width="120" height="40" as="geometry" />
        </mxCell>
        <mxCell id="4iwTf2Q5Y9JTk8ooHyW_-147" value="" style="endArrow=none;html=1;rounded=0;fillColor=#000000;entryX=0.166;entryY=0;entryDx=0;entryDy=0;entryPerimeter=0;exitX=0.5;exitY=1;exitDx=0;exitDy=0;" parent="1" source="4iwTf2Q5Y9JTk8ooHyW_-148" edge="1">
          <mxGeometry width="50" height="50" relative="1" as="geometry">
            <mxPoint x="1809.5" y="620" as="sourcePoint" />
            <mxPoint x="1809.42" y="640" as="targetPoint" />
          </mxGeometry>
        </mxCell>
        <mxCell id="4iwTf2Q5Y9JTk8ooHyW_-148" value="" style="ellipse;whiteSpace=wrap;html=1;aspect=fixed;strokeWidth=1;fillColor=#000000;" parent="1" vertex="1">
          <mxGeometry x="1804.5" y="600" width="10" height="10" as="geometry" />
        </mxCell>
        <mxCell id="4iwTf2Q5Y9JTk8ooHyW_-149" value="Codice pianta" style="text;html=1;align=center;verticalAlign=middle;resizable=0;points=[];autosize=1;strokeColor=none;fillColor=none;" parent="1" vertex="1">
          <mxGeometry x="1740" y="580" width="90" height="20" as="geometry" />
        </mxCell>
        <mxCell id="4iwTf2Q5Y9JTk8ooHyW_-150" value="Nome &lt;br&gt;latino" style="text;html=1;align=center;verticalAlign=middle;resizable=0;points=[];autosize=1;strokeColor=none;fillColor=none;" parent="1" vertex="1">
          <mxGeometry x="1861" y="720" width="50" height="30" as="geometry" />
        </mxCell>
        <mxCell id="4iwTf2Q5Y9JTk8ooHyW_-151" value="" style="endArrow=none;html=1;rounded=0;fillColor=#000000;entryX=0.166;entryY=0;entryDx=0;entryDy=0;entryPerimeter=0;exitX=0.5;exitY=1;exitDx=0;exitDy=0;" parent="1" source="4iwTf2Q5Y9JTk8ooHyW_-152" edge="1">
          <mxGeometry width="50" height="50" relative="1" as="geometry">
            <mxPoint x="1909.5" y="620" as="sourcePoint" />
            <mxPoint x="1909.42" y="640" as="targetPoint" />
          </mxGeometry>
        </mxCell>
        <mxCell id="4iwTf2Q5Y9JTk8ooHyW_-152" value="" style="ellipse;whiteSpace=wrap;html=1;aspect=fixed;strokeWidth=1;fillColor=none;" parent="1" vertex="1">
          <mxGeometry x="1904.5" y="600" width="10" height="10" as="geometry" />
        </mxCell>
        <mxCell id="4iwTf2Q5Y9JTk8ooHyW_-153" value="Nome &lt;br&gt;comune" style="text;html=1;align=center;verticalAlign=middle;resizable=0;points=[];autosize=1;strokeColor=none;fillColor=none;" parent="1" vertex="1">
          <mxGeometry x="1883.5" y="570" width="60" height="30" as="geometry" />
        </mxCell>
        <mxCell id="4iwTf2Q5Y9JTk8ooHyW_-157" value="Prezzo" style="rounded=0;whiteSpace=wrap;html=1;strokeWidth=1;perimeterSpacing=0;" parent="1" vertex="1">
          <mxGeometry x="1399.5" y="640" width="120" height="40" as="geometry" />
        </mxCell>
        <mxCell id="4iwTf2Q5Y9JTk8ooHyW_-158" value="valutazione" style="rhombus;whiteSpace=wrap;html=1;" parent="1" vertex="1">
          <mxGeometry x="1599.5" y="640" width="120" height="40" as="geometry" />
        </mxCell>
        <mxCell id="4iwTf2Q5Y9JTk8ooHyW_-159" value="" style="endArrow=none;html=1;rounded=0;entryX=0;entryY=0.5;entryDx=0;entryDy=0;exitX=1;exitY=0.5;exitDx=0;exitDy=0;" parent="1" source="4iwTf2Q5Y9JTk8ooHyW_-158" target="4iwTf2Q5Y9JTk8ooHyW_-135" edge="1">
          <mxGeometry width="50" height="50" relative="1" as="geometry">
            <mxPoint x="1689.5" y="760" as="sourcePoint" />
            <mxPoint x="1739.5" y="710" as="targetPoint" />
          </mxGeometry>
        </mxCell>
        <mxCell id="4iwTf2Q5Y9JTk8ooHyW_-160" value="" style="endArrow=none;html=1;rounded=0;entryX=1;entryY=0.5;entryDx=0;entryDy=0;exitX=0;exitY=0.5;exitDx=0;exitDy=0;" parent="1" source="4iwTf2Q5Y9JTk8ooHyW_-158" target="4iwTf2Q5Y9JTk8ooHyW_-157" edge="1">
          <mxGeometry width="50" height="50" relative="1" as="geometry">
            <mxPoint x="1689.5" y="760" as="sourcePoint" />
            <mxPoint x="1739.5" y="710" as="targetPoint" />
          </mxGeometry>
        </mxCell>
        <mxCell id="4iwTf2Q5Y9JTk8ooHyW_-161" value="" style="endArrow=none;html=1;rounded=0;fillColor=#000000;entryX=0.166;entryY=0;entryDx=0;entryDy=0;entryPerimeter=0;exitX=0.5;exitY=1;exitDx=0;exitDy=0;" parent="1" source="4iwTf2Q5Y9JTk8ooHyW_-162" edge="1">
          <mxGeometry width="50" height="50" relative="1" as="geometry">
            <mxPoint x="1419" y="620" as="sourcePoint" />
            <mxPoint x="1418.9199999999996" y="640" as="targetPoint" />
          </mxGeometry>
        </mxCell>
        <mxCell id="4iwTf2Q5Y9JTk8ooHyW_-162" value="" style="ellipse;whiteSpace=wrap;html=1;aspect=fixed;strokeWidth=1;fillColor=none;" parent="1" vertex="1">
          <mxGeometry x="1414" y="600" width="10" height="10" as="geometry" />
        </mxCell>
        <mxCell id="4iwTf2Q5Y9JTk8ooHyW_-163" value="" style="endArrow=none;html=1;rounded=0;fillColor=#000000;entryX=0.166;entryY=0;entryDx=0;entryDy=0;entryPerimeter=0;exitX=0.5;exitY=1;exitDx=0;exitDy=0;" parent="1" source="4iwTf2Q5Y9JTk8ooHyW_-164" edge="1">
          <mxGeometry width="50" height="50" relative="1" as="geometry">
            <mxPoint x="1499" y="620" as="sourcePoint" />
            <mxPoint x="1498.9199999999996" y="640" as="targetPoint" />
          </mxGeometry>
        </mxCell>
        <mxCell id="4iwTf2Q5Y9JTk8ooHyW_-164" value="" style="ellipse;whiteSpace=wrap;html=1;aspect=fixed;strokeWidth=1;fillColor=none;" parent="1" vertex="1">
          <mxGeometry x="1494" y="600" width="10" height="10" as="geometry" />
        </mxCell>
        <mxCell id="4iwTf2Q5Y9JTk8ooHyW_-165" value="Data inizio" style="text;html=1;align=center;verticalAlign=middle;resizable=0;points=[];autosize=1;strokeColor=none;fillColor=none;" parent="1" vertex="1">
          <mxGeometry x="1464" y="575" width="70" height="20" as="geometry" />
        </mxCell>
        <mxCell id="4iwTf2Q5Y9JTk8ooHyW_-166" value="Valore" style="text;html=1;align=center;verticalAlign=middle;resizable=0;points=[];autosize=1;strokeColor=none;fillColor=none;" parent="1" vertex="1">
          <mxGeometry x="1394" y="575" width="50" height="20" as="geometry" />
        </mxCell>
        <mxCell id="4iwTf2Q5Y9JTk8ooHyW_-167" value="" style="endArrow=none;html=1;rounded=0;" parent="1" edge="1">
          <mxGeometry width="50" height="50" relative="1" as="geometry">
            <mxPoint x="1489.5000000000005" y="620" as="sourcePoint" />
            <mxPoint x="1539.5" y="670" as="targetPoint" />
            <Array as="points">
              <mxPoint x="1539.5" y="620" />
            </Array>
          </mxGeometry>
        </mxCell>
        <mxCell id="4iwTf2Q5Y9JTk8ooHyW_-168" value="" style="ellipse;whiteSpace=wrap;html=1;aspect=fixed;strokeWidth=1;fillColor=#000000;" parent="1" vertex="1">
          <mxGeometry x="1534" y="670" width="10" height="10" as="geometry" />
        </mxCell>
        <mxCell id="4iwTf2Q5Y9JTk8ooHyW_-169" value="(1,N)" style="text;html=1;align=center;verticalAlign=middle;resizable=0;points=[];autosize=1;strokeColor=none;fillColor=none;" parent="1" vertex="1">
          <mxGeometry x="1759.5" y="640" width="40" height="20" as="geometry" />
        </mxCell>
        <mxCell id="4iwTf2Q5Y9JTk8ooHyW_-170" value="(1,1)" style="text;html=1;align=center;verticalAlign=middle;resizable=0;points=[];autosize=1;strokeColor=none;fillColor=none;" parent="1" vertex="1">
          <mxGeometry x="1539.5" y="640" width="40" height="20" as="geometry" />
        </mxCell>
        <mxCell id="4iwTf2Q5Y9JTk8ooHyW_-184" value="" style="ellipse;whiteSpace=wrap;html=1;aspect=fixed;strokeWidth=1;fillColor=none;" parent="1" vertex="1">
          <mxGeometry x="615" y="350" width="10" height="10" as="geometry" />
        </mxCell>
        <mxCell id="4iwTf2Q5Y9JTk8ooHyW_-185" value="Data" style="text;html=1;align=center;verticalAlign=middle;resizable=0;points=[];autosize=1;strokeColor=none;fillColor=none;" parent="1" vertex="1">
          <mxGeometry x="600" y="360" width="40" height="20" as="geometry" />
        </mxCell>
        <mxCell id="4iwTf2Q5Y9JTk8ooHyW_-186" value="" style="endArrow=none;html=1;rounded=0;exitX=0.5;exitY=0;exitDx=0;exitDy=0;entryX=0.5;entryY=1;entryDx=0;entryDy=0;" parent="1" source="4iwTf2Q5Y9JTk8ooHyW_-184" target="4iwTf2Q5Y9JTk8ooHyW_-58" edge="1">
          <mxGeometry width="50" height="50" relative="1" as="geometry">
            <mxPoint x="682" y="355.49" as="sourcePoint" />
            <mxPoint x="621.04" y="325.51000000000005" as="targetPoint" />
          </mxGeometry>
        </mxCell>
        <mxCell id="4iwTf2Q5Y9JTk8ooHyW_-187" value="(1,1)" style="text;html=1;align=center;verticalAlign=middle;resizable=0;points=[];autosize=1;strokeColor=none;fillColor=none;" parent="1" vertex="1">
          <mxGeometry x="760" y="280" width="40" height="20" as="geometry" />
        </mxCell>
        <mxCell id="4iwTf2Q5Y9JTk8ooHyW_-188" value="(1,N)" style="text;html=1;align=center;verticalAlign=middle;resizable=0;points=[];autosize=1;strokeColor=none;fillColor=none;" parent="1" vertex="1">
          <mxGeometry x="440" y="280" width="40" height="20" as="geometry" />
        </mxCell>
        <mxCell id="4iwTf2Q5Y9JTk8ooHyW_-189" value="(0,1)" style="text;html=1;align=center;verticalAlign=middle;resizable=0;points=[];autosize=1;strokeColor=none;fillColor=none;" parent="1" vertex="1">
          <mxGeometry x="825" y="414" width="40" height="20" as="geometry" />
        </mxCell>
        <mxCell id="4iwTf2Q5Y9JTk8ooHyW_-190" value="(1,N)" style="text;html=1;align=center;verticalAlign=middle;resizable=0;points=[];autosize=1;strokeColor=none;fillColor=none;" parent="1" vertex="1">
          <mxGeometry x="642" y="550" width="40" height="20" as="geometry" />
        </mxCell>
        <mxCell id="4iwTf2Q5Y9JTk8ooHyW_-192" value="Fornitore" style="rounded=0;whiteSpace=wrap;html=1;strokeWidth=1;perimeterSpacing=0;" parent="1" vertex="1">
          <mxGeometry x="1999.5" y="280.5" width="120" height="40" as="geometry" />
        </mxCell>
        <mxCell id="4iwTf2Q5Y9JTk8ooHyW_-193" value="" style="endArrow=none;html=1;rounded=0;fillColor=#000000;exitX=0.5;exitY=1;exitDx=0;exitDy=0;entryX=0.088;entryY=-0.003;entryDx=0;entryDy=0;entryPerimeter=0;" parent="1" source="4iwTf2Q5Y9JTk8ooHyW_-194" target="4iwTf2Q5Y9JTk8ooHyW_-192" edge="1">
          <mxGeometry width="50" height="50" relative="1" as="geometry">
            <mxPoint x="2009.58" y="260" as="sourcePoint" />
            <mxPoint x="2010" y="270" as="targetPoint" />
          </mxGeometry>
        </mxCell>
        <mxCell id="4iwTf2Q5Y9JTk8ooHyW_-194" value="" style="ellipse;whiteSpace=wrap;html=1;aspect=fixed;strokeWidth=1;fillColor=#000000;" parent="1" vertex="1">
          <mxGeometry x="2004.5" y="240" width="10" height="10" as="geometry" />
        </mxCell>
        <mxCell id="4iwTf2Q5Y9JTk8ooHyW_-195" value="Codice fornitore" style="text;html=1;align=center;verticalAlign=middle;resizable=0;points=[];autosize=1;strokeColor=none;fillColor=none;" parent="1" vertex="1">
          <mxGeometry x="1959.5" y="220" width="100" height="20" as="geometry" />
        </mxCell>
        <mxCell id="4iwTf2Q5Y9JTk8ooHyW_-196" value="" style="endArrow=none;html=1;rounded=0;fillColor=#000000;exitX=1;exitY=0.5;exitDx=0;exitDy=0;entryX=0;entryY=0.5;entryDx=0;entryDy=0;" parent="1" source="4iwTf2Q5Y9JTk8ooHyW_-197" target="4iwTf2Q5Y9JTk8ooHyW_-192" edge="1">
          <mxGeometry width="50" height="50" relative="1" as="geometry">
            <mxPoint x="2059.58" y="260" as="sourcePoint" />
            <mxPoint x="2060" y="270" as="targetPoint" />
          </mxGeometry>
        </mxCell>
        <mxCell id="4iwTf2Q5Y9JTk8ooHyW_-197" value="" style="ellipse;whiteSpace=wrap;html=1;aspect=fixed;strokeWidth=1;fillColor=none;" parent="1" vertex="1">
          <mxGeometry x="1960" y="295.5" width="10" height="10" as="geometry" />
        </mxCell>
        <mxCell id="4iwTf2Q5Y9JTk8ooHyW_-198" value="Nome fornitore" style="text;html=1;align=center;verticalAlign=middle;resizable=0;points=[];autosize=1;strokeColor=none;fillColor=none;" parent="1" vertex="1">
          <mxGeometry x="1868.5" y="290" width="90" height="20" as="geometry" />
        </mxCell>
        <mxCell id="4iwTf2Q5Y9JTk8ooHyW_-199" value="" style="endArrow=none;html=1;rounded=0;fillColor=#000000;exitX=0.5;exitY=1;exitDx=0;exitDy=0;entryX=0.916;entryY=0.011;entryDx=0;entryDy=0;entryPerimeter=0;" parent="1" source="4iwTf2Q5Y9JTk8ooHyW_-200" target="4iwTf2Q5Y9JTk8ooHyW_-192" edge="1">
          <mxGeometry width="50" height="50" relative="1" as="geometry">
            <mxPoint x="2108.58" y="260" as="sourcePoint" />
            <mxPoint x="2110" y="270" as="targetPoint" />
          </mxGeometry>
        </mxCell>
        <mxCell id="4iwTf2Q5Y9JTk8ooHyW_-200" value="" style="ellipse;whiteSpace=wrap;html=1;aspect=fixed;strokeWidth=1;fillColor=none;" parent="1" vertex="1">
          <mxGeometry x="2104.5" y="240" width="10" height="10" as="geometry" />
        </mxCell>
        <mxCell id="4iwTf2Q5Y9JTk8ooHyW_-201" value="CF fornitore" style="text;html=1;align=center;verticalAlign=middle;resizable=0;points=[];autosize=1;strokeColor=none;fillColor=none;" parent="1" vertex="1">
          <mxGeometry x="2068.5" y="220" width="80" height="20" as="geometry" />
        </mxCell>
        <mxCell id="4iwTf2Q5Y9JTk8ooHyW_-203" value="fruizione" style="rhombus;whiteSpace=wrap;html=1;" parent="1" vertex="1">
          <mxGeometry x="2200" y="400" width="120" height="40" as="geometry" />
        </mxCell>
        <mxCell id="4iwTf2Q5Y9JTk8ooHyW_-204" value="composizione" style="rhombus;whiteSpace=wrap;html=1;" parent="1" vertex="1">
          <mxGeometry x="1999.5" y="640" width="120" height="40" as="geometry" />
        </mxCell>
        <mxCell id="4iwTf2Q5Y9JTk8ooHyW_-205" value="trattazione" style="rhombus;whiteSpace=wrap;html=1;" parent="1" vertex="1">
          <mxGeometry x="1999.5" y="440" width="120" height="40" as="geometry" />
        </mxCell>
        <mxCell id="4iwTf2Q5Y9JTk8ooHyW_-207" value="" style="ellipse;whiteSpace=wrap;html=1;aspect=fixed;strokeWidth=1;fillColor=none;" parent="1" vertex="1">
          <mxGeometry x="1880" y="710" width="10" height="10" as="geometry" />
        </mxCell>
        <mxCell id="4iwTf2Q5Y9JTk8ooHyW_-208" value="" style="endArrow=none;html=1;rounded=0;exitX=0.5;exitY=0;exitDx=0;exitDy=0;entryX=0.713;entryY=0.999;entryDx=0;entryDy=0;entryPerimeter=0;" parent="1" source="4iwTf2Q5Y9JTk8ooHyW_-207" target="4iwTf2Q5Y9JTk8ooHyW_-135" edge="1">
          <mxGeometry width="50" height="50" relative="1" as="geometry">
            <mxPoint x="1894" y="709.98" as="sourcePoint" />
            <mxPoint x="1884.5" y="680" as="targetPoint" />
          </mxGeometry>
        </mxCell>
        <mxCell id="4iwTf2Q5Y9JTk8ooHyW_-209" value="" style="endArrow=none;html=1;rounded=0;exitX=1;exitY=0.5;exitDx=0;exitDy=0;entryX=0;entryY=0.5;entryDx=0;entryDy=0;" parent="1" source="4iwTf2Q5Y9JTk8ooHyW_-135" target="4iwTf2Q5Y9JTk8ooHyW_-204" edge="1">
          <mxGeometry width="50" height="50" relative="1" as="geometry">
            <mxPoint x="2010" y="640" as="sourcePoint" />
            <mxPoint x="2060" y="590" as="targetPoint" />
          </mxGeometry>
        </mxCell>
        <mxCell id="4iwTf2Q5Y9JTk8ooHyW_-210" value="" style="endArrow=none;html=1;rounded=0;entryX=0;entryY=0.5;entryDx=0;entryDy=0;exitX=1;exitY=0.5;exitDx=0;exitDy=0;" parent="1" source="4iwTf2Q5Y9JTk8ooHyW_-204" target="iLhkmTH8O5mXpbuvHX9v-9" edge="1">
          <mxGeometry width="50" height="50" relative="1" as="geometry">
            <mxPoint x="2010" y="640" as="sourcePoint" />
            <mxPoint x="2200" y="660" as="targetPoint" />
            <Array as="points">
              <mxPoint x="2160" y="660" />
              <mxPoint x="2160" y="580" />
            </Array>
          </mxGeometry>
        </mxCell>
        <mxCell id="4iwTf2Q5Y9JTk8ooHyW_-211" value="" style="endArrow=none;html=1;rounded=0;entryX=0.5;entryY=1;entryDx=0;entryDy=0;exitX=0.5;exitY=0;exitDx=0;exitDy=0;" parent="1" source="iLhkmTH8O5mXpbuvHX9v-9" target="4iwTf2Q5Y9JTk8ooHyW_-203" edge="1">
          <mxGeometry width="50" height="50" relative="1" as="geometry">
            <mxPoint x="2260" y="640" as="sourcePoint" />
            <mxPoint x="2260" y="550" as="targetPoint" />
          </mxGeometry>
        </mxCell>
        <mxCell id="4iwTf2Q5Y9JTk8ooHyW_-212" value="" style="endArrow=none;html=1;rounded=0;exitX=1;exitY=0.5;exitDx=0;exitDy=0;entryX=0.5;entryY=0;entryDx=0;entryDy=0;" parent="1" source="4iwTf2Q5Y9JTk8ooHyW_-192" target="4iwTf2Q5Y9JTk8ooHyW_-203" edge="1">
          <mxGeometry width="50" height="50" relative="1" as="geometry">
            <mxPoint x="2200" y="360" as="sourcePoint" />
            <mxPoint x="2250" y="310" as="targetPoint" />
            <Array as="points">
              <mxPoint x="2260" y="300" />
            </Array>
          </mxGeometry>
        </mxCell>
        <mxCell id="4iwTf2Q5Y9JTk8ooHyW_-214" value="" style="endArrow=none;html=1;rounded=0;entryX=0.5;entryY=1;entryDx=0;entryDy=0;exitX=0.5;exitY=0;exitDx=0;exitDy=0;" parent="1" source="4iwTf2Q5Y9JTk8ooHyW_-205" target="4iwTf2Q5Y9JTk8ooHyW_-192" edge="1">
          <mxGeometry width="50" height="50" relative="1" as="geometry">
            <mxPoint x="1990" y="430" as="sourcePoint" />
            <mxPoint x="2040" y="380" as="targetPoint" />
          </mxGeometry>
        </mxCell>
        <mxCell id="4iwTf2Q5Y9JTk8ooHyW_-215" value="" style="endArrow=none;html=1;rounded=0;entryX=0;entryY=0.5;entryDx=0;entryDy=0;exitX=0.75;exitY=0;exitDx=0;exitDy=0;" parent="1" source="4iwTf2Q5Y9JTk8ooHyW_-135" target="4iwTf2Q5Y9JTk8ooHyW_-205" edge="1">
          <mxGeometry width="50" height="50" relative="1" as="geometry">
            <mxPoint x="1990" y="550" as="sourcePoint" />
            <mxPoint x="2040" y="500" as="targetPoint" />
            <Array as="points">
              <mxPoint x="1890" y="460" />
            </Array>
          </mxGeometry>
        </mxCell>
        <mxCell id="4iwTf2Q5Y9JTk8ooHyW_-230" value="(1,N)" style="text;html=1;align=center;verticalAlign=middle;resizable=0;points=[];autosize=1;strokeColor=none;fillColor=none;" parent="1" vertex="1">
          <mxGeometry x="2060" y="327" width="40" height="20" as="geometry" />
        </mxCell>
        <mxCell id="4iwTf2Q5Y9JTk8ooHyW_-231" value="(1,N)" style="text;html=1;align=center;verticalAlign=middle;resizable=0;points=[];autosize=1;strokeColor=none;fillColor=none;" parent="1" vertex="1">
          <mxGeometry x="1955" y="440" width="40" height="20" as="geometry" />
        </mxCell>
        <mxCell id="4iwTf2Q5Y9JTk8ooHyW_-232" value="(1,N)" style="text;html=1;align=center;verticalAlign=middle;resizable=0;points=[];autosize=1;strokeColor=none;fillColor=none;" parent="1" vertex="1">
          <mxGeometry x="2123.5" y="277" width="40" height="20" as="geometry" />
        </mxCell>
        <mxCell id="4iwTf2Q5Y9JTk8ooHyW_-235" value="(0,N)" style="text;html=1;align=center;verticalAlign=middle;resizable=0;points=[];autosize=1;strokeColor=none;fillColor=none;" parent="1" vertex="1">
          <mxGeometry x="1923" y="639" width="40" height="20" as="geometry" />
        </mxCell>
        <mxCell id="4iwTf2Q5Y9JTk8ooHyW_-254" value="" style="endArrow=none;html=1;rounded=0;entryX=0.5;entryY=0;entryDx=0;entryDy=0;exitX=1;exitY=0.5;exitDx=0;exitDy=0;" parent="1" source="4iwTf2Q5Y9JTk8ooHyW_-97" target="4iwTf2Q5Y9JTk8ooHyW_-135" edge="1">
          <mxGeometry width="50" height="50" relative="1" as="geometry">
            <mxPoint x="1720" y="420" as="sourcePoint" />
            <mxPoint x="1790" y="510" as="targetPoint" />
            <Array as="points">
              <mxPoint x="1640" y="160" />
              <mxPoint x="1640" y="400" />
              <mxPoint x="1860" y="400" />
            </Array>
          </mxGeometry>
        </mxCell>
        <mxCell id="4iwTf2Q5Y9JTk8ooHyW_-266" value="" style="ellipse;whiteSpace=wrap;html=1;aspect=fixed;strokeWidth=1;fillColor=none;" parent="1" vertex="1">
          <mxGeometry x="1360" y="645" width="10" height="10" as="geometry" />
        </mxCell>
        <mxCell id="4iwTf2Q5Y9JTk8ooHyW_-267" value="" style="endArrow=none;html=1;rounded=0;exitX=1;exitY=0.5;exitDx=0;exitDy=0;entryX=0;entryY=0.25;entryDx=0;entryDy=0;" parent="1" source="4iwTf2Q5Y9JTk8ooHyW_-266" target="4iwTf2Q5Y9JTk8ooHyW_-157" edge="1">
          <mxGeometry width="50" height="50" relative="1" as="geometry">
            <mxPoint x="1480" y="680" as="sourcePoint" />
            <mxPoint x="1530" y="630" as="targetPoint" />
          </mxGeometry>
        </mxCell>
        <mxCell id="4iwTf2Q5Y9JTk8ooHyW_-268" value="Data fine" style="text;html=1;align=center;verticalAlign=middle;resizable=0;points=[];autosize=1;strokeColor=none;fillColor=none;" parent="1" vertex="1">
          <mxGeometry x="1298" y="639" width="60" height="20" as="geometry" />
        </mxCell>
        <mxCell id="4iwTf2Q5Y9JTk8ooHyW_-280" value="" style="ellipse;whiteSpace=wrap;html=1;aspect=fixed;strokeWidth=1;fillColor=#000000;" parent="1" vertex="1">
          <mxGeometry x="949.5" y="725" width="10" height="10" as="geometry" />
        </mxCell>
        <mxCell id="4iwTf2Q5Y9JTk8ooHyW_-281" value="" style="ellipse;whiteSpace=wrap;html=1;aspect=fixed;strokeWidth=1;fillColor=none;" parent="1" vertex="1">
          <mxGeometry x="949.5" y="745" width="10" height="10" as="geometry" />
        </mxCell>
        <mxCell id="4iwTf2Q5Y9JTk8ooHyW_-283" value="" style="endArrow=none;html=1;rounded=0;entryX=1;entryY=0.75;entryDx=0;entryDy=0;exitX=0;exitY=0.5;exitDx=0;exitDy=0;" parent="1" source="4iwTf2Q5Y9JTk8ooHyW_-281" target="4iwTf2Q5Y9JTk8ooHyW_-297" edge="1">
          <mxGeometry width="50" height="50" relative="1" as="geometry">
            <mxPoint x="769.5" y="759" as="sourcePoint" />
            <mxPoint x="609.5" y="760" as="targetPoint" />
          </mxGeometry>
        </mxCell>
        <mxCell id="4iwTf2Q5Y9JTk8ooHyW_-284" value="Recapito ref." style="text;html=1;align=center;verticalAlign=middle;resizable=0;points=[];autosize=1;strokeColor=none;fillColor=none;" parent="1" vertex="1">
          <mxGeometry x="961" y="720" width="80" height="20" as="geometry" />
        </mxCell>
        <mxCell id="4iwTf2Q5Y9JTk8ooHyW_-285" value="Mezzo di com." style="text;html=1;align=center;verticalAlign=middle;resizable=0;points=[];autosize=1;strokeColor=none;fillColor=none;" parent="1" vertex="1">
          <mxGeometry x="961" y="739" width="90" height="20" as="geometry" />
        </mxCell>
        <mxCell id="4iwTf2Q5Y9JTk8ooHyW_-295" value="(1,N)" style="text;html=1;align=center;verticalAlign=middle;resizable=0;points=[];autosize=1;strokeColor=none;fillColor=none;" parent="1" vertex="1">
          <mxGeometry x="1765" y="684" width="40" height="20" as="geometry" />
        </mxCell>
        <mxCell id="4iwTf2Q5Y9JTk8ooHyW_-297" value="Contatto Referente" style="rounded=0;whiteSpace=wrap;html=1;strokeWidth=1;perimeterSpacing=0;" parent="1" vertex="1">
          <mxGeometry x="799.5" y="720" width="120" height="40" as="geometry" />
        </mxCell>
        <mxCell id="4iwTf2Q5Y9JTk8ooHyW_-298" value="" style="endArrow=none;html=1;rounded=0;entryX=0.5;entryY=1;entryDx=0;entryDy=0;exitX=0.916;exitY=0.007;exitDx=0;exitDy=0;exitPerimeter=0;" parent="1" source="4iwTf2Q5Y9JTk8ooHyW_-42" target="4iwTf2Q5Y9JTk8ooHyW_-54" edge="1">
          <mxGeometry width="50" height="50" relative="1" as="geometry">
            <mxPoint x="610" y="580" as="sourcePoint" />
            <mxPoint x="660" y="530" as="targetPoint" />
          </mxGeometry>
        </mxCell>
        <mxCell id="4iwTf2Q5Y9JTk8ooHyW_-299" value="CF" style="text;html=1;align=center;verticalAlign=middle;resizable=0;points=[];autosize=1;strokeColor=none;fillColor=none;" parent="1" vertex="1">
          <mxGeometry x="615" y="500" width="30" height="20" as="geometry" />
        </mxCell>
        <mxCell id="4iwTf2Q5Y9JTk8ooHyW_-348" value="Nome cliente" style="text;html=1;align=center;verticalAlign=middle;resizable=0;points=[];autosize=1;strokeColor=none;fillColor=none;" parent="1" vertex="1">
          <mxGeometry x="190" y="298" width="90" height="20" as="geometry" />
        </mxCell>
        <mxCell id="4iwTf2Q5Y9JTk8ooHyW_-350" value="Cognome cliente" style="text;html=1;align=center;verticalAlign=middle;resizable=0;points=[];autosize=1;strokeColor=none;fillColor=none;" parent="1" vertex="1">
          <mxGeometry x="170" y="279" width="110" height="20" as="geometry" />
        </mxCell>
        <mxCell id="4iwTf2Q5Y9JTk8ooHyW_-353" value="(0,1)" style="text;html=1;align=center;verticalAlign=middle;resizable=0;points=[];autosize=1;strokeColor=none;fillColor=none;" parent="1" vertex="1">
          <mxGeometry x="284" y="270" width="40" height="20" as="geometry" />
        </mxCell>
        <mxCell id="4iwTf2Q5Y9JTk8ooHyW_-356" value="" style="ellipse;whiteSpace=wrap;html=1;aspect=fixed;strokeWidth=1;fillColor=none;" parent="1" vertex="1">
          <mxGeometry x="280" y="285" width="10" height="10" as="geometry" />
        </mxCell>
        <mxCell id="4iwTf2Q5Y9JTk8ooHyW_-357" value="" style="endArrow=none;html=1;rounded=0;exitX=1;exitY=0.5;exitDx=0;exitDy=0;entryX=0;entryY=0.25;entryDx=0;entryDy=0;" parent="1" source="4iwTf2Q5Y9JTk8ooHyW_-356" target="4iwTf2Q5Y9JTk8ooHyW_-1" edge="1">
          <mxGeometry width="50" height="50" relative="1" as="geometry">
            <mxPoint x="240" y="320" as="sourcePoint" />
            <mxPoint x="310" y="300" as="targetPoint" />
          </mxGeometry>
        </mxCell>
        <mxCell id="4iwTf2Q5Y9JTk8ooHyW_-361" value="Tipo" style="text;html=1;align=center;verticalAlign=middle;resizable=0;points=[];autosize=1;strokeColor=none;fillColor=none;" parent="1" vertex="1">
          <mxGeometry x="390" y="219.54000000000002" width="40" height="20" as="geometry" />
        </mxCell>
        <mxCell id="4iwTf2Q5Y9JTk8ooHyW_-368" value="raggiungimento" style="rhombus;whiteSpace=wrap;html=1;" parent="1" vertex="1">
          <mxGeometry x="520" y="720" width="120" height="40" as="geometry" />
        </mxCell>
        <mxCell id="4iwTf2Q5Y9JTk8ooHyW_-371" value="" style="endArrow=none;html=1;rounded=0;exitX=0.5;exitY=0;exitDx=0;exitDy=0;entryX=0.5;entryY=1;entryDx=0;entryDy=0;" parent="1" source="4iwTf2Q5Y9JTk8ooHyW_-368" target="4iwTf2Q5Y9JTk8ooHyW_-42" edge="1">
          <mxGeometry width="50" height="50" relative="1" as="geometry">
            <mxPoint x="300" y="700" as="sourcePoint" />
            <mxPoint x="350" y="650" as="targetPoint" />
          </mxGeometry>
        </mxCell>
        <mxCell id="4iwTf2Q5Y9JTk8ooHyW_-372" value="reperimento" style="rhombus;whiteSpace=wrap;html=1;" parent="1" vertex="1">
          <mxGeometry x="120" y="440" width="120" height="40" as="geometry" />
        </mxCell>
        <mxCell id="4iwTf2Q5Y9JTk8ooHyW_-373" value="" style="endArrow=none;html=1;rounded=0;entryX=0.5;entryY=1;entryDx=0;entryDy=0;exitX=0.5;exitY=0;exitDx=0;exitDy=0;" parent="1" source="KEAozYdov8fi060EAJIp-4" target="4iwTf2Q5Y9JTk8ooHyW_-372" edge="1">
          <mxGeometry width="50" height="50" relative="1" as="geometry">
            <mxPoint x="180" y="540" as="sourcePoint" />
            <mxPoint x="270" y="510" as="targetPoint" />
          </mxGeometry>
        </mxCell>
        <mxCell id="4iwTf2Q5Y9JTk8ooHyW_-374" value="" style="endArrow=none;html=1;rounded=0;entryX=0.25;entryY=1;entryDx=0;entryDy=0;exitX=0.5;exitY=0;exitDx=0;exitDy=0;" parent="1" source="4iwTf2Q5Y9JTk8ooHyW_-372" target="4iwTf2Q5Y9JTk8ooHyW_-1" edge="1">
          <mxGeometry width="50" height="50" relative="1" as="geometry">
            <mxPoint x="210" y="450" as="sourcePoint" />
            <mxPoint x="260" y="400" as="targetPoint" />
            <Array as="points">
              <mxPoint x="180" y="380" />
              <mxPoint x="350" y="380" />
            </Array>
          </mxGeometry>
        </mxCell>
        <mxCell id="4iwTf2Q5Y9JTk8ooHyW_-375" value="(1,1)" style="text;html=1;align=center;verticalAlign=middle;resizable=0;points=[];autosize=1;strokeColor=none;fillColor=none;" parent="1" vertex="1">
          <mxGeometry x="178" y="535" width="40" height="20" as="geometry" />
        </mxCell>
        <mxCell id="4iwTf2Q5Y9JTk8ooHyW_-376" value="(1,N)" style="text;html=1;align=center;verticalAlign=middle;resizable=0;points=[];autosize=1;strokeColor=none;fillColor=none;" parent="1" vertex="1">
          <mxGeometry x="315" y="319" width="40" height="20" as="geometry" />
        </mxCell>
        <mxCell id="4iwTf2Q5Y9JTk8ooHyW_-378" value="(0,1)" style="text;html=1;align=center;verticalAlign=middle;resizable=0;points=[];autosize=1;strokeColor=none;fillColor=none;" parent="1" vertex="1">
          <mxGeometry x="643" y="590" width="40" height="20" as="geometry" />
        </mxCell>
        <mxCell id="4iwTf2Q5Y9JTk8ooHyW_-379" value="(1,N)" style="text;html=1;align=center;verticalAlign=middle;resizable=0;points=[];autosize=1;strokeColor=none;fillColor=none;" parent="1" vertex="1">
          <mxGeometry x="537" y="604" width="40" height="20" as="geometry" />
        </mxCell>
        <mxCell id="4iwTf2Q5Y9JTk8ooHyW_-380" value="" style="endArrow=none;html=1;rounded=0;fillColor=#000000;exitX=0.5;exitY=1;exitDx=0;exitDy=0;entryX=0.75;entryY=0;entryDx=0;entryDy=0;" parent="1" source="4iwTf2Q5Y9JTk8ooHyW_-381" target="4iwTf2Q5Y9JTk8ooHyW_-1" edge="1">
          <mxGeometry width="50" height="50" relative="1" as="geometry">
            <mxPoint x="371.0799999999999" y="261.53999999999996" as="sourcePoint" />
            <mxPoint x="370.44000000000005" y="280.5" as="targetPoint" />
          </mxGeometry>
        </mxCell>
        <mxCell id="4iwTf2Q5Y9JTk8ooHyW_-381" value="" style="ellipse;whiteSpace=wrap;html=1;aspect=fixed;strokeWidth=1;fillColor=none;" parent="1" vertex="1">
          <mxGeometry x="405" y="239.54" width="10" height="10" as="geometry" />
        </mxCell>
        <mxCell id="4iwTf2Q5Y9JTk8ooHyW_-385" value="" style="ellipse;whiteSpace=wrap;html=1;aspect=fixed;strokeWidth=1;fillColor=none;" parent="1" vertex="1">
          <mxGeometry x="280" y="305" width="10" height="10" as="geometry" />
        </mxCell>
        <mxCell id="4iwTf2Q5Y9JTk8ooHyW_-386" value="" style="endArrow=none;html=1;rounded=0;entryX=0;entryY=0.75;entryDx=0;entryDy=0;exitX=1;exitY=0.5;exitDx=0;exitDy=0;" parent="1" source="4iwTf2Q5Y9JTk8ooHyW_-385" target="4iwTf2Q5Y9JTk8ooHyW_-1" edge="1">
          <mxGeometry width="50" height="50" relative="1" as="geometry">
            <mxPoint x="270" y="330" as="sourcePoint" />
            <mxPoint x="320" y="280" as="targetPoint" />
          </mxGeometry>
        </mxCell>
        <mxCell id="4iwTf2Q5Y9JTk8ooHyW_-387" value="Indirizzo" style="rounded=0;whiteSpace=wrap;html=1;strokeWidth=1;perimeterSpacing=0;" parent="1" vertex="1">
          <mxGeometry x="560" y="80" width="120" height="40" as="geometry" />
        </mxCell>
        <mxCell id="4iwTf2Q5Y9JTk8ooHyW_-389" value="spedizione" style="rhombus;whiteSpace=wrap;html=1;" parent="1" vertex="1">
          <mxGeometry x="660" y="180" width="120" height="40" as="geometry" />
        </mxCell>
        <mxCell id="4iwTf2Q5Y9JTk8ooHyW_-390" value="" style="ellipse;whiteSpace=wrap;html=1;aspect=fixed;strokeWidth=1;fillColor=none;" parent="1" vertex="1">
          <mxGeometry x="1280" y="200" width="10" height="10" as="geometry" />
        </mxCell>
        <mxCell id="4iwTf2Q5Y9JTk8ooHyW_-391" value="" style="endArrow=none;html=1;rounded=0;exitX=0.5;exitY=1;exitDx=0;exitDy=0;entryX=0;entryY=0.5;entryDx=0;entryDy=0;" parent="1" source="4iwTf2Q5Y9JTk8ooHyW_-97" target="4iwTf2Q5Y9JTk8ooHyW_-390" edge="1">
          <mxGeometry width="50" height="50" relative="1" as="geometry">
            <mxPoint x="1270" y="210" as="sourcePoint" />
            <mxPoint x="1320" y="160" as="targetPoint" />
          </mxGeometry>
        </mxCell>
        <mxCell id="4iwTf2Q5Y9JTk8ooHyW_-392" value="" style="endArrow=none;html=1;rounded=0;exitX=0;exitY=0.5;exitDx=0;exitDy=0;entryX=0.832;entryY=0.998;entryDx=0;entryDy=0;entryPerimeter=0;" parent="1" source="4iwTf2Q5Y9JTk8ooHyW_-389" target="4iwTf2Q5Y9JTk8ooHyW_-387" edge="1">
          <mxGeometry width="50" height="50" relative="1" as="geometry">
            <mxPoint x="640" y="170" as="sourcePoint" />
            <mxPoint x="660" y="110" as="targetPoint" />
          </mxGeometry>
        </mxCell>
        <mxCell id="4iwTf2Q5Y9JTk8ooHyW_-393" value="" style="endArrow=none;html=1;rounded=0;exitX=1;exitY=0.5;exitDx=0;exitDy=0;entryX=0.5;entryY=0;entryDx=0;entryDy=0;" parent="1" source="4iwTf2Q5Y9JTk8ooHyW_-389" target="4iwTf2Q5Y9JTk8ooHyW_-75" edge="1">
          <mxGeometry width="50" height="50" relative="1" as="geometry">
            <mxPoint x="670" y="230" as="sourcePoint" />
            <mxPoint x="720" y="180" as="targetPoint" />
            <Array as="points">
              <mxPoint x="860" y="200" />
            </Array>
          </mxGeometry>
        </mxCell>
        <mxCell id="4iwTf2Q5Y9JTk8ooHyW_-394" value="sede" style="rhombus;whiteSpace=wrap;html=1;" parent="1" vertex="1">
          <mxGeometry x="1200" y="80" width="120" height="40" as="geometry" />
        </mxCell>
        <mxCell id="4iwTf2Q5Y9JTk8ooHyW_-395" value="" style="endArrow=none;html=1;rounded=0;exitX=0.5;exitY=0;exitDx=0;exitDy=0;entryX=1;entryY=0.5;entryDx=0;entryDy=0;" parent="1" source="4iwTf2Q5Y9JTk8ooHyW_-192" target="4iwTf2Q5Y9JTk8ooHyW_-394" edge="1">
          <mxGeometry width="50" height="50" relative="1" as="geometry">
            <mxPoint x="2080" y="200" as="sourcePoint" />
            <mxPoint x="1970" y="230" as="targetPoint" />
            <Array as="points">
              <mxPoint x="2060" y="100" />
            </Array>
          </mxGeometry>
        </mxCell>
        <mxCell id="4iwTf2Q5Y9JTk8ooHyW_-396" value="residenza" style="rhombus;whiteSpace=wrap;html=1;" parent="1" vertex="1">
          <mxGeometry x="460" y="180" width="120" height="40" as="geometry" />
        </mxCell>
        <mxCell id="4iwTf2Q5Y9JTk8ooHyW_-397" value="fatturazione" style="rhombus;whiteSpace=wrap;html=1;" parent="1" vertex="1">
          <mxGeometry x="360" y="80" width="120" height="40" as="geometry" />
        </mxCell>
        <mxCell id="4iwTf2Q5Y9JTk8ooHyW_-398" value="" style="endArrow=none;html=1;rounded=0;entryX=0;entryY=0.5;entryDx=0;entryDy=0;exitX=1;exitY=0.5;exitDx=0;exitDy=0;" parent="1" source="4iwTf2Q5Y9JTk8ooHyW_-387" target="4iwTf2Q5Y9JTk8ooHyW_-394" edge="1">
          <mxGeometry width="50" height="50" relative="1" as="geometry">
            <mxPoint x="910" y="120" as="sourcePoint" />
            <mxPoint x="1070" y="110" as="targetPoint" />
          </mxGeometry>
        </mxCell>
        <mxCell id="4iwTf2Q5Y9JTk8ooHyW_-399" value="" style="endArrow=none;html=1;rounded=0;exitX=1;exitY=0.5;exitDx=0;exitDy=0;entryX=0.167;entryY=0.996;entryDx=0;entryDy=0;entryPerimeter=0;" parent="1" source="4iwTf2Q5Y9JTk8ooHyW_-396" target="4iwTf2Q5Y9JTk8ooHyW_-387" edge="1">
          <mxGeometry width="50" height="50" relative="1" as="geometry">
            <mxPoint x="560" y="170" as="sourcePoint" />
            <mxPoint x="600" y="90" as="targetPoint" />
          </mxGeometry>
        </mxCell>
        <mxCell id="4iwTf2Q5Y9JTk8ooHyW_-400" value="" style="ellipse;whiteSpace=wrap;html=1;aspect=fixed;strokeWidth=1;fillColor=none;" parent="1" vertex="1">
          <mxGeometry x="595" y="150" width="10" height="10" as="geometry" />
        </mxCell>
        <mxCell id="4iwTf2Q5Y9JTk8ooHyW_-401" value="" style="endArrow=none;html=1;rounded=0;entryX=0.333;entryY=1.013;entryDx=0;entryDy=0;entryPerimeter=0;exitX=0.5;exitY=0;exitDx=0;exitDy=0;" parent="1" source="4iwTf2Q5Y9JTk8ooHyW_-400" target="4iwTf2Q5Y9JTk8ooHyW_-387" edge="1">
          <mxGeometry width="50" height="50" relative="1" as="geometry">
            <mxPoint x="530" y="180" as="sourcePoint" />
            <mxPoint x="600.08" y="140.27999999999997" as="targetPoint" />
          </mxGeometry>
        </mxCell>
        <mxCell id="4iwTf2Q5Y9JTk8ooHyW_-402" value="" style="ellipse;whiteSpace=wrap;html=1;aspect=fixed;strokeWidth=1;fillColor=none;" parent="1" vertex="1">
          <mxGeometry x="635" y="150" width="10" height="10" as="geometry" />
        </mxCell>
        <mxCell id="4iwTf2Q5Y9JTk8ooHyW_-403" value="" style="endArrow=none;html=1;rounded=0;exitX=0.5;exitY=0;exitDx=0;exitDy=0;entryX=0.666;entryY=0.998;entryDx=0;entryDy=0;entryPerimeter=0;" parent="1" source="4iwTf2Q5Y9JTk8ooHyW_-402" target="4iwTf2Q5Y9JTk8ooHyW_-387" edge="1">
          <mxGeometry width="50" height="50" relative="1" as="geometry">
            <mxPoint x="580" y="160" as="sourcePoint" />
            <mxPoint x="630" y="110" as="targetPoint" />
          </mxGeometry>
        </mxCell>
        <mxCell id="4iwTf2Q5Y9JTk8ooHyW_-404" value="" style="ellipse;whiteSpace=wrap;html=1;aspect=fixed;strokeWidth=1;fillColor=none;" parent="1" vertex="1">
          <mxGeometry x="565" y="40" width="10" height="10" as="geometry" />
        </mxCell>
        <mxCell id="4iwTf2Q5Y9JTk8ooHyW_-405" value="" style="endArrow=none;html=1;rounded=0;exitX=0.082;exitY=0.004;exitDx=0;exitDy=0;exitPerimeter=0;entryX=0.5;entryY=1;entryDx=0;entryDy=0;" parent="1" source="4iwTf2Q5Y9JTk8ooHyW_-387" target="4iwTf2Q5Y9JTk8ooHyW_-404" edge="1">
          <mxGeometry width="50" height="50" relative="1" as="geometry">
            <mxPoint x="560" y="80" as="sourcePoint" />
            <mxPoint x="610" y="30" as="targetPoint" />
          </mxGeometry>
        </mxCell>
        <mxCell id="4iwTf2Q5Y9JTk8ooHyW_-406" value="" style="ellipse;whiteSpace=wrap;html=1;aspect=fixed;strokeWidth=1;fillColor=#000000;strokeColor=#000000;" parent="1" vertex="1">
          <mxGeometry x="615" y="40" width="10" height="10" as="geometry" />
        </mxCell>
        <mxCell id="4iwTf2Q5Y9JTk8ooHyW_-407" value="" style="endArrow=none;html=1;rounded=0;entryX=0.5;entryY=1;entryDx=0;entryDy=0;exitX=0.5;exitY=0;exitDx=0;exitDy=0;" parent="1" source="4iwTf2Q5Y9JTk8ooHyW_-387" target="4iwTf2Q5Y9JTk8ooHyW_-406" edge="1">
          <mxGeometry width="50" height="50" relative="1" as="geometry">
            <mxPoint x="590" y="90" as="sourcePoint" />
            <mxPoint x="640" y="40" as="targetPoint" />
          </mxGeometry>
        </mxCell>
        <mxCell id="4iwTf2Q5Y9JTk8ooHyW_-408" value="" style="ellipse;whiteSpace=wrap;html=1;aspect=fixed;strokeWidth=1;fillColor=none;" parent="1" vertex="1">
          <mxGeometry x="665" y="40" width="10" height="10" as="geometry" />
        </mxCell>
        <mxCell id="4iwTf2Q5Y9JTk8ooHyW_-409" value="" style="endArrow=none;html=1;rounded=0;entryX=0.5;entryY=1;entryDx=0;entryDy=0;exitX=0.916;exitY=0.001;exitDx=0;exitDy=0;exitPerimeter=0;" parent="1" source="4iwTf2Q5Y9JTk8ooHyW_-387" target="4iwTf2Q5Y9JTk8ooHyW_-408" edge="1">
          <mxGeometry width="50" height="50" relative="1" as="geometry">
            <mxPoint x="600" y="90" as="sourcePoint" />
            <mxPoint x="650" y="40" as="targetPoint" />
          </mxGeometry>
        </mxCell>
        <mxCell id="4iwTf2Q5Y9JTk8ooHyW_-410" value="Codice ind." style="text;html=1;align=center;verticalAlign=middle;resizable=0;points=[];autosize=1;strokeColor=none;fillColor=none;" parent="1" vertex="1">
          <mxGeometry x="577" y="20" width="80" height="20" as="geometry" />
        </mxCell>
        <mxCell id="4iwTf2Q5Y9JTk8ooHyW_-411" value="" style="endArrow=none;html=1;rounded=0;entryX=0;entryY=0.5;entryDx=0;entryDy=0;exitX=0.92;exitY=0.006;exitDx=0;exitDy=0;exitPerimeter=0;" parent="1" source="4iwTf2Q5Y9JTk8ooHyW_-1" target="4iwTf2Q5Y9JTk8ooHyW_-396" edge="1">
          <mxGeometry width="50" height="50" relative="1" as="geometry">
            <mxPoint x="430" y="270" as="sourcePoint" />
            <mxPoint x="500" y="170" as="targetPoint" />
            <Array as="points">
              <mxPoint x="430" y="200" />
            </Array>
          </mxGeometry>
        </mxCell>
        <mxCell id="4iwTf2Q5Y9JTk8ooHyW_-412" value="" style="endArrow=none;html=1;rounded=0;exitX=1;exitY=0.5;exitDx=0;exitDy=0;entryX=0;entryY=0.5;entryDx=0;entryDy=0;" parent="1" source="4iwTf2Q5Y9JTk8ooHyW_-397" target="4iwTf2Q5Y9JTk8ooHyW_-387" edge="1">
          <mxGeometry width="50" height="50" relative="1" as="geometry">
            <mxPoint x="380" y="100" as="sourcePoint" />
            <mxPoint x="430" y="50" as="targetPoint" />
          </mxGeometry>
        </mxCell>
        <mxCell id="4iwTf2Q5Y9JTk8ooHyW_-414" value="(1,1)" style="text;html=1;align=center;verticalAlign=middle;resizable=0;points=[];autosize=1;strokeColor=none;fillColor=none;" parent="1" vertex="1">
          <mxGeometry x="427" y="180" width="40" height="20" as="geometry" />
        </mxCell>
        <mxCell id="4iwTf2Q5Y9JTk8ooHyW_-415" value="(0,N)" style="text;html=1;align=center;verticalAlign=middle;resizable=0;points=[];autosize=1;strokeColor=none;fillColor=none;" parent="1" vertex="1">
          <mxGeometry x="517" y="80" width="40" height="20" as="geometry" />
        </mxCell>
        <mxCell id="4iwTf2Q5Y9JTk8ooHyW_-416" value="(0,N)" style="text;html=1;align=center;verticalAlign=middle;resizable=0;points=[];autosize=1;strokeColor=none;fillColor=none;" parent="1" vertex="1">
          <mxGeometry x="680" y="80" width="40" height="20" as="geometry" />
        </mxCell>
        <mxCell id="4iwTf2Q5Y9JTk8ooHyW_-417" value="(1,1)" style="text;html=1;align=center;verticalAlign=middle;resizable=0;points=[];autosize=1;strokeColor=none;fillColor=none;" parent="1" vertex="1">
          <mxGeometry x="2058" y="255.45" width="40" height="20" as="geometry" />
        </mxCell>
        <mxCell id="4iwTf2Q5Y9JTk8ooHyW_-418" value="(0,N)" style="text;html=1;align=center;verticalAlign=middle;resizable=0;points=[];autosize=1;strokeColor=none;fillColor=none;" parent="1" vertex="1">
          <mxGeometry x="655" y="121" width="40" height="20" as="geometry" />
        </mxCell>
        <mxCell id="4iwTf2Q5Y9JTk8ooHyW_-419" value="(1,1)" style="text;html=1;align=center;verticalAlign=middle;resizable=0;points=[];autosize=1;strokeColor=none;fillColor=none;" parent="1" vertex="1">
          <mxGeometry x="816" y="181" width="40" height="20" as="geometry" />
        </mxCell>
        <mxCell id="4iwTf2Q5Y9JTk8ooHyW_-420" value="(0,N)" style="text;html=1;align=center;verticalAlign=middle;resizable=0;points=[];autosize=1;strokeColor=none;fillColor=none;" parent="1" vertex="1">
          <mxGeometry x="540" y="121" width="40" height="20" as="geometry" />
        </mxCell>
        <mxCell id="4iwTf2Q5Y9JTk8ooHyW_-421" value="(1,1)" style="text;html=1;align=center;verticalAlign=middle;resizable=0;points=[];autosize=1;strokeColor=none;fillColor=none;" parent="1" vertex="1">
          <mxGeometry x="324" y="80" width="40" height="20" as="geometry" />
        </mxCell>
        <mxCell id="JnT1NLhulGJocDnzgOJr-1" value="TipoPianta" style="rounded=0;whiteSpace=wrap;html=1;strokeWidth=1;perimeterSpacing=0;" parent="1" vertex="1">
          <mxGeometry x="1399.5" y="760" width="120" height="40" as="geometry" />
        </mxCell>
        <mxCell id="JnT1NLhulGJocDnzgOJr-2" value="tipologia" style="rhombus;whiteSpace=wrap;html=1;" parent="1" vertex="1">
          <mxGeometry x="1599.5" y="760" width="120" height="40" as="geometry" />
        </mxCell>
        <mxCell id="JnT1NLhulGJocDnzgOJr-3" value="" style="endArrow=none;html=1;rounded=0;exitX=1;exitY=0.5;exitDx=0;exitDy=0;entryX=0;entryY=0.5;entryDx=0;entryDy=0;" parent="1" source="JnT1NLhulGJocDnzgOJr-1" target="JnT1NLhulGJocDnzgOJr-2" edge="1">
          <mxGeometry width="50" height="50" relative="1" as="geometry">
            <mxPoint x="1550" y="750" as="sourcePoint" />
            <mxPoint x="1600" y="700" as="targetPoint" />
          </mxGeometry>
        </mxCell>
        <mxCell id="JnT1NLhulGJocDnzgOJr-4" value="(0,N)" style="text;html=1;align=center;verticalAlign=middle;resizable=0;points=[];autosize=1;strokeColor=none;fillColor=none;" parent="1" vertex="1">
          <mxGeometry x="1516" y="760" width="40" height="20" as="geometry" />
        </mxCell>
        <mxCell id="JnT1NLhulGJocDnzgOJr-5" value="" style="ellipse;whiteSpace=wrap;html=1;aspect=fixed;strokeWidth=1;fillColor=#000000;" parent="1" vertex="1">
          <mxGeometry x="1360" y="775" width="10" height="10" as="geometry" />
        </mxCell>
        <mxCell id="JnT1NLhulGJocDnzgOJr-6" value="" style="endArrow=none;html=1;rounded=0;exitX=0;exitY=0.5;exitDx=0;exitDy=0;entryX=1;entryY=0.5;entryDx=0;entryDy=0;" parent="1" source="JnT1NLhulGJocDnzgOJr-1" target="JnT1NLhulGJocDnzgOJr-5" edge="1">
          <mxGeometry width="50" height="50" relative="1" as="geometry">
            <mxPoint x="1460" y="770" as="sourcePoint" />
            <mxPoint x="1510" y="720" as="targetPoint" />
          </mxGeometry>
        </mxCell>
        <mxCell id="JnT1NLhulGJocDnzgOJr-7" value="Tipo" style="text;html=1;align=center;verticalAlign=middle;resizable=0;points=[];autosize=1;strokeColor=none;fillColor=none;" parent="1" vertex="1">
          <mxGeometry x="1324" y="770" width="40" height="20" as="geometry" />
        </mxCell>
        <mxCell id="KEAozYdov8fi060EAJIp-3" value="" style="endArrow=none;html=1;rounded=0;exitX=0;exitY=0.5;exitDx=0;exitDy=0;entryX=1;entryY=0.25;entryDx=0;entryDy=0;" parent="1" source="4iwTf2Q5Y9JTk8ooHyW_-280" target="4iwTf2Q5Y9JTk8ooHyW_-297" edge="1">
          <mxGeometry width="50" height="50" relative="1" as="geometry">
            <mxPoint x="839.5" y="799" as="sourcePoint" />
            <mxPoint x="889.5" y="749" as="targetPoint" />
          </mxGeometry>
        </mxCell>
        <mxCell id="KEAozYdov8fi060EAJIp-4" value="Contatto Cliente" style="rounded=0;whiteSpace=wrap;html=1;strokeWidth=1;perimeterSpacing=0;" parent="1" vertex="1">
          <mxGeometry x="120" y="560" width="120" height="40" as="geometry" />
        </mxCell>
        <mxCell id="KEAozYdov8fi060EAJIp-5" value="" style="ellipse;whiteSpace=wrap;html=1;aspect=fixed;strokeWidth=1;fillColor=#000000;" parent="1" vertex="1">
          <mxGeometry x="215" y="630" width="10" height="10" as="geometry" />
        </mxCell>
        <mxCell id="KEAozYdov8fi060EAJIp-6" value="" style="ellipse;whiteSpace=wrap;html=1;aspect=fixed;strokeWidth=1;fillColor=none;" parent="1" vertex="1">
          <mxGeometry x="135" y="630" width="10" height="10" as="geometry" />
        </mxCell>
        <mxCell id="KEAozYdov8fi060EAJIp-7" value="" style="endArrow=none;html=1;rounded=0;exitX=0.5;exitY=0;exitDx=0;exitDy=0;entryX=0.166;entryY=1.006;entryDx=0;entryDy=0;entryPerimeter=0;" parent="1" source="KEAozYdov8fi060EAJIp-6" target="KEAozYdov8fi060EAJIp-4" edge="1">
          <mxGeometry width="50" height="50" relative="1" as="geometry">
            <mxPoint x="90" y="600" as="sourcePoint" />
            <mxPoint x="140" y="610" as="targetPoint" />
          </mxGeometry>
        </mxCell>
        <mxCell id="KEAozYdov8fi060EAJIp-8" value="Recapito cliente" style="text;html=1;align=center;verticalAlign=middle;resizable=0;points=[];autosize=1;strokeColor=none;fillColor=none;" parent="1" vertex="1">
          <mxGeometry x="178" y="641" width="100" height="20" as="geometry" />
        </mxCell>
        <mxCell id="KEAozYdov8fi060EAJIp-9" value="Mezzo di com." style="text;html=1;align=center;verticalAlign=middle;resizable=0;points=[];autosize=1;strokeColor=none;fillColor=none;" parent="1" vertex="1">
          <mxGeometry x="95" y="640" width="90" height="20" as="geometry" />
        </mxCell>
        <mxCell id="KEAozYdov8fi060EAJIp-10" value="" style="endArrow=none;html=1;rounded=0;exitX=0.5;exitY=0;exitDx=0;exitDy=0;entryX=0.833;entryY=0.998;entryDx=0;entryDy=0;entryPerimeter=0;" parent="1" source="KEAozYdov8fi060EAJIp-5" target="KEAozYdov8fi060EAJIp-4" edge="1">
          <mxGeometry width="50" height="50" relative="1" as="geometry">
            <mxPoint x="160" y="640" as="sourcePoint" />
            <mxPoint x="220" y="610" as="targetPoint" />
          </mxGeometry>
        </mxCell>
        <mxCell id="zIlczccZj9qT09d7LfaC-1" value="" style="endArrow=none;html=1;rounded=0;entryX=0.087;entryY=0.999;entryDx=0;entryDy=0;exitX=1;exitY=0.5;exitDx=0;exitDy=0;entryPerimeter=0;" parent="1" source="JnT1NLhulGJocDnzgOJr-2" target="4iwTf2Q5Y9JTk8ooHyW_-135" edge="1">
          <mxGeometry width="50" height="50" relative="1" as="geometry">
            <mxPoint x="1820" y="800" as="sourcePoint" />
            <mxPoint x="1870" y="750" as="targetPoint" />
            <Array as="points">
              <mxPoint x="1810" y="780" />
            </Array>
          </mxGeometry>
        </mxCell>
        <mxCell id="zIlczccZj9qT09d7LfaC-2" value="Colorito" style="rounded=0;whiteSpace=wrap;html=1;strokeWidth=1;perimeterSpacing=0;" parent="1" vertex="1">
          <mxGeometry x="2200" y="760" width="120" height="40" as="geometry" />
        </mxCell>
        <mxCell id="zIlczccZj9qT09d7LfaC-3" value="colorazione" style="rhombus;whiteSpace=wrap;html=1;" parent="1" vertex="1">
          <mxGeometry x="1999.5" y="760" width="120" height="40" as="geometry" />
        </mxCell>
        <mxCell id="zIlczccZj9qT09d7LfaC-5" value="(0,N)" style="text;html=1;align=center;verticalAlign=middle;resizable=0;points=[];autosize=1;strokeColor=none;fillColor=none;" parent="1" vertex="1">
          <mxGeometry x="1904.5" y="684" width="40" height="20" as="geometry" />
        </mxCell>
        <mxCell id="zIlczccZj9qT09d7LfaC-6" value="" style="ellipse;whiteSpace=wrap;html=1;aspect=fixed;strokeWidth=1;fillColor=#000000;" parent="1" vertex="1">
          <mxGeometry x="2255" y="720" width="10" height="10" as="geometry" />
        </mxCell>
        <mxCell id="zIlczccZj9qT09d7LfaC-7" value="" style="endArrow=none;html=1;rounded=0;exitX=0.5;exitY=0;exitDx=0;exitDy=0;entryX=0.5;entryY=1;entryDx=0;entryDy=0;" parent="1" source="zIlczccZj9qT09d7LfaC-2" target="zIlczccZj9qT09d7LfaC-6" edge="1">
          <mxGeometry width="50" height="50" relative="1" as="geometry">
            <mxPoint x="2330" y="790" as="sourcePoint" />
            <mxPoint x="2260" y="740" as="targetPoint" />
          </mxGeometry>
        </mxCell>
        <mxCell id="zIlczccZj9qT09d7LfaC-8" value="Colore" style="text;html=1;align=center;verticalAlign=middle;resizable=0;points=[];autosize=1;strokeColor=none;fillColor=none;" parent="1" vertex="1">
          <mxGeometry x="2235" y="701" width="50" height="20" as="geometry" />
        </mxCell>
        <mxCell id="zIlczccZj9qT09d7LfaC-9" value="" style="endArrow=none;html=1;rounded=0;entryX=0;entryY=0.5;entryDx=0;entryDy=0;exitX=0.922;exitY=1.003;exitDx=0;exitDy=0;exitPerimeter=0;" parent="1" source="4iwTf2Q5Y9JTk8ooHyW_-135" target="zIlczccZj9qT09d7LfaC-3" edge="1">
          <mxGeometry width="50" height="50" relative="1" as="geometry">
            <mxPoint x="1980" y="820" as="sourcePoint" />
            <mxPoint x="2030" y="770" as="targetPoint" />
            <Array as="points">
              <mxPoint x="1910" y="780" />
            </Array>
          </mxGeometry>
        </mxCell>
        <mxCell id="zIlczccZj9qT09d7LfaC-11" value="" style="endArrow=none;html=1;rounded=0;exitX=1;exitY=0.5;exitDx=0;exitDy=0;entryX=0;entryY=0.5;entryDx=0;entryDy=0;" parent="1" source="zIlczccZj9qT09d7LfaC-3" target="zIlczccZj9qT09d7LfaC-2" edge="1">
          <mxGeometry width="50" height="50" relative="1" as="geometry">
            <mxPoint x="2180" y="770" as="sourcePoint" />
            <mxPoint x="2230" y="720" as="targetPoint" />
          </mxGeometry>
        </mxCell>
        <mxCell id="50_kP7MvVYtNGRatQpLl-1" value="(0,N)" style="text;html=1;align=center;verticalAlign=middle;resizable=0;points=[];autosize=1;strokeColor=none;fillColor=none;" parent="1" vertex="1">
          <mxGeometry x="2155" y="760" width="40" height="20" as="geometry" />
        </mxCell>
        <mxCell id="NojKByFTX3PDdo3wGKHb-1" value="" style="endArrow=none;html=1;rounded=0;entryX=0;entryY=0.5;entryDx=0;entryDy=0;exitX=0.083;exitY=0.005;exitDx=0;exitDy=0;exitPerimeter=0;" parent="1" source="4iwTf2Q5Y9JTk8ooHyW_-1" target="4iwTf2Q5Y9JTk8ooHyW_-397" edge="1">
          <mxGeometry width="50" height="50" relative="1" as="geometry">
            <mxPoint x="210" y="220" as="sourcePoint" />
            <mxPoint x="260" y="170" as="targetPoint" />
            <Array as="points">
              <mxPoint x="330" y="100" />
            </Array>
          </mxGeometry>
        </mxCell>
        <mxCell id="NojKByFTX3PDdo3wGKHb-2" value="Pref. Cliente" style="rhombus;whiteSpace=wrap;html=1;" parent="1" vertex="1">
          <mxGeometry x="320" y="440" width="120" height="40" as="geometry" />
        </mxCell>
        <mxCell id="NojKByFTX3PDdo3wGKHb-3" value="" style="endArrow=none;html=1;rounded=0;exitX=0.5;exitY=0;exitDx=0;exitDy=0;entryX=0.5;entryY=1;entryDx=0;entryDy=0;" parent="1" source="NojKByFTX3PDdo3wGKHb-2" target="4iwTf2Q5Y9JTk8ooHyW_-1" edge="1">
          <mxGeometry width="50" height="50" relative="1" as="geometry">
            <mxPoint x="380" y="430" as="sourcePoint" />
            <mxPoint x="430" y="380" as="targetPoint" />
          </mxGeometry>
        </mxCell>
        <mxCell id="NojKByFTX3PDdo3wGKHb-4" value="" style="endArrow=none;html=1;rounded=0;exitX=1;exitY=0.5;exitDx=0;exitDy=0;entryX=0.5;entryY=1;entryDx=0;entryDy=0;" parent="1" source="KEAozYdov8fi060EAJIp-4" target="NojKByFTX3PDdo3wGKHb-2" edge="1">
          <mxGeometry width="50" height="50" relative="1" as="geometry">
            <mxPoint x="380" y="530" as="sourcePoint" />
            <mxPoint x="430" y="480" as="targetPoint" />
            <Array as="points">
              <mxPoint x="380" y="580" />
            </Array>
          </mxGeometry>
        </mxCell>
        <mxCell id="NojKByFTX3PDdo3wGKHb-6" value="Pref. Ref." style="rhombus;whiteSpace=wrap;html=1;" parent="1" vertex="1">
          <mxGeometry x="800" y="640" width="120" height="40" as="geometry" />
        </mxCell>
        <mxCell id="NojKByFTX3PDdo3wGKHb-7" value="" style="endArrow=none;html=1;rounded=0;entryX=0.5;entryY=0;entryDx=0;entryDy=0;exitX=1;exitY=0.75;exitDx=0;exitDy=0;" parent="1" source="4iwTf2Q5Y9JTk8ooHyW_-42" target="NojKByFTX3PDdo3wGKHb-6" edge="1">
          <mxGeometry width="50" height="50" relative="1" as="geometry">
            <mxPoint x="670" y="730" as="sourcePoint" />
            <mxPoint x="720" y="680" as="targetPoint" />
            <Array as="points">
              <mxPoint x="860" y="590" />
            </Array>
          </mxGeometry>
        </mxCell>
        <mxCell id="NojKByFTX3PDdo3wGKHb-8" value="" style="endArrow=none;html=1;rounded=0;entryX=0.5;entryY=1;entryDx=0;entryDy=0;exitX=0.5;exitY=0;exitDx=0;exitDy=0;" parent="1" source="4iwTf2Q5Y9JTk8ooHyW_-297" target="NojKByFTX3PDdo3wGKHb-6" edge="1">
          <mxGeometry width="50" height="50" relative="1" as="geometry">
            <mxPoint x="820" y="720" as="sourcePoint" />
            <mxPoint x="850" y="700" as="targetPoint" />
          </mxGeometry>
        </mxCell>
        <mxCell id="NojKByFTX3PDdo3wGKHb-9" value="" style="endArrow=none;html=1;rounded=0;exitX=1;exitY=0.5;exitDx=0;exitDy=0;entryX=0;entryY=0.5;entryDx=0;entryDy=0;" parent="1" source="4iwTf2Q5Y9JTk8ooHyW_-368" target="4iwTf2Q5Y9JTk8ooHyW_-297" edge="1">
          <mxGeometry width="50" height="50" relative="1" as="geometry">
            <mxPoint x="680" y="780" as="sourcePoint" />
            <mxPoint x="730" y="730" as="targetPoint" />
          </mxGeometry>
        </mxCell>
        <mxCell id="NojKByFTX3PDdo3wGKHb-10" value="(1,1)" style="text;html=1;align=center;verticalAlign=middle;resizable=0;points=[];autosize=1;strokeColor=none;fillColor=none;" parent="1" vertex="1">
          <mxGeometry x="758" y="719" width="40" height="20" as="geometry" />
        </mxCell>
        <mxCell id="iLhkmTH8O5mXpbuvHX9v-1" value="(1,1)" style="text;html=1;align=center;verticalAlign=middle;resizable=0;points=[];autosize=1;strokeColor=none;fillColor=none;" parent="1" vertex="1">
          <mxGeometry x="340" y="420" width="40" height="20" as="geometry" />
        </mxCell>
        <mxCell id="iLhkmTH8O5mXpbuvHX9v-2" value="(0,1)" style="text;html=1;align=center;verticalAlign=middle;resizable=0;points=[];autosize=1;strokeColor=none;fillColor=none;" parent="1" vertex="1">
          <mxGeometry x="240" y="558" width="40" height="20" as="geometry" />
        </mxCell>
        <mxCell id="iLhkmTH8O5mXpbuvHX9v-4" value="(1,1)" style="text;html=1;align=center;verticalAlign=middle;resizable=0;points=[];autosize=1;strokeColor=none;fillColor=none;" parent="1" vertex="1">
          <mxGeometry x="857" y="695" width="40" height="20" as="geometry" />
        </mxCell>
        <mxCell id="iLhkmTH8O5mXpbuvHX9v-5" value="(0,1)" style="text;html=1;align=center;verticalAlign=middle;resizable=0;points=[];autosize=1;strokeColor=none;fillColor=none;" parent="1" vertex="1">
          <mxGeometry x="1363" y="630" width="40" height="20" as="geometry" />
        </mxCell>
        <mxCell id="iLhkmTH8O5mXpbuvHX9v-6" value="" style="ellipse;whiteSpace=wrap;html=1;aspect=fixed;strokeWidth=1;fillColor=none;" parent="1" vertex="1">
          <mxGeometry x="1360" y="665" width="10" height="10" as="geometry" />
        </mxCell>
        <mxCell id="iLhkmTH8O5mXpbuvHX9v-7" value="" style="endArrow=none;html=1;rounded=0;entryX=0;entryY=0.75;entryDx=0;entryDy=0;exitX=1;exitY=0.5;exitDx=0;exitDy=0;" parent="1" source="iLhkmTH8O5mXpbuvHX9v-6" target="4iwTf2Q5Y9JTk8ooHyW_-157" edge="1">
          <mxGeometry width="50" height="50" relative="1" as="geometry">
            <mxPoint x="1340" y="690" as="sourcePoint" />
            <mxPoint x="1390" y="640" as="targetPoint" />
          </mxGeometry>
        </mxCell>
        <mxCell id="iLhkmTH8O5mXpbuvHX9v-8" value="Tipo" style="text;html=1;align=center;verticalAlign=middle;resizable=0;points=[];autosize=1;strokeColor=none;fillColor=none;" parent="1" vertex="1">
          <mxGeometry x="1320" y="659" width="40" height="20" as="geometry" />
        </mxCell>
        <mxCell id="iLhkmTH8O5mXpbuvHX9v-9" value="Fornitura" style="rounded=0;whiteSpace=wrap;html=1;strokeWidth=1;perimeterSpacing=0;" parent="1" vertex="1">
          <mxGeometry x="2200" y="560" width="120" height="40" as="geometry" />
        </mxCell>
        <mxCell id="iLhkmTH8O5mXpbuvHX9v-10" value="(1,1)" style="text;html=1;align=center;verticalAlign=middle;resizable=0;points=[];autosize=1;strokeColor=none;fillColor=none;" parent="1" vertex="1">
          <mxGeometry x="2255" y="518" width="40" height="20" as="geometry" />
        </mxCell>
        <mxCell id="iLhkmTH8O5mXpbuvHX9v-11" value="(1,1)" style="text;html=1;align=center;verticalAlign=middle;resizable=0;points=[];autosize=1;strokeColor=none;fillColor=none;" parent="1" vertex="1">
          <mxGeometry x="2160" y="610" width="40" height="20" as="geometry" />
        </mxCell>
        <mxCell id="iLhkmTH8O5mXpbuvHX9v-12" value="Data" style="text;html=1;align=center;verticalAlign=middle;resizable=0;points=[];autosize=1;strokeColor=none;fillColor=none;" parent="1" vertex="1">
          <mxGeometry x="2210" y="641" width="40" height="20" as="geometry" />
        </mxCell>
        <mxCell id="iLhkmTH8O5mXpbuvHX9v-13" value="QuantitÃ " style="text;html=1;align=center;verticalAlign=middle;resizable=0;points=[];autosize=1;strokeColor=none;fillColor=none;" parent="1" vertex="1">
          <mxGeometry x="2260" y="641" width="60" height="20" as="geometry" />
        </mxCell>
        <mxCell id="iLhkmTH8O5mXpbuvHX9v-14" value="" style="ellipse;whiteSpace=wrap;html=1;aspect=fixed;strokeWidth=1;fillColor=none;" parent="1" vertex="1">
          <mxGeometry x="2225" y="520" width="10" height="10" as="geometry" />
        </mxCell>
        <mxCell id="iLhkmTH8O5mXpbuvHX9v-15" value="Codice" style="text;html=1;align=center;verticalAlign=middle;resizable=0;points=[];autosize=1;strokeColor=none;fillColor=none;" parent="1" vertex="1">
          <mxGeometry x="2205" y="500" width="50" height="20" as="geometry" />
        </mxCell>
        <mxCell id="iLhkmTH8O5mXpbuvHX9v-16" value="" style="endArrow=none;html=1;rounded=0;entryX=0.25;entryY=0;entryDx=0;entryDy=0;exitX=0.5;exitY=1;exitDx=0;exitDy=0;" parent="1" source="iLhkmTH8O5mXpbuvHX9v-14" target="iLhkmTH8O5mXpbuvHX9v-9" edge="1">
          <mxGeometry width="50" height="50" relative="1" as="geometry">
            <mxPoint x="2025" y="580" as="sourcePoint" />
            <mxPoint x="2224.9600000000005" y="560" as="targetPoint" />
          </mxGeometry>
        </mxCell>
        <mxCell id="iLhkmTH8O5mXpbuvHX9v-17" value="" style="endArrow=none;html=1;rounded=0;exitX=0.5;exitY=0;exitDx=0;exitDy=0;" parent="1" source="iLhkmTH8O5mXpbuvHX9v-18" edge="1">
          <mxGeometry width="50" height="50" relative="1" as="geometry">
            <mxPoint x="2180" y="600" as="sourcePoint" />
            <mxPoint x="2280" y="540" as="targetPoint" />
            <Array as="points">
              <mxPoint x="2180" y="540" />
            </Array>
          </mxGeometry>
        </mxCell>
        <mxCell id="iLhkmTH8O5mXpbuvHX9v-18" value="" style="ellipse;whiteSpace=wrap;html=1;aspect=fixed;strokeWidth=1;fillColor=#000000;" parent="1" vertex="1">
          <mxGeometry x="2175" y="600" width="10" height="10" as="geometry" />
        </mxCell>
        <mxCell id="iLhkmTH8O5mXpbuvHX9v-19" value="" style="ellipse;whiteSpace=wrap;html=1;aspect=fixed;strokeWidth=1;fillColor=none;" parent="1" vertex="1">
          <mxGeometry x="2285" y="630" width="10" height="10" as="geometry" />
        </mxCell>
        <mxCell id="iLhkmTH8O5mXpbuvHX9v-20" value="" style="endArrow=none;html=1;rounded=0;entryX=0.75;entryY=1;entryDx=0;entryDy=0;exitX=0.5;exitY=0;exitDx=0;exitDy=0;" parent="1" source="iLhkmTH8O5mXpbuvHX9v-19" target="iLhkmTH8O5mXpbuvHX9v-9" edge="1">
          <mxGeometry width="50" height="50" relative="1" as="geometry">
            <mxPoint x="2289" y="724" as="sourcePoint" />
            <mxPoint x="2294" y="693.9999999999999" as="targetPoint" />
          </mxGeometry>
        </mxCell>
        <mxCell id="iLhkmTH8O5mXpbuvHX9v-21" value="" style="ellipse;whiteSpace=wrap;html=1;aspect=fixed;strokeWidth=1;fillColor=none;" parent="1" vertex="1">
          <mxGeometry x="2225" y="630" width="10" height="10" as="geometry" />
        </mxCell>
        <mxCell id="iLhkmTH8O5mXpbuvHX9v-22" value="" style="endArrow=none;html=1;rounded=0;exitX=0.5;exitY=0;exitDx=0;exitDy=0;entryX=0.25;entryY=1;entryDx=0;entryDy=0;" parent="1" source="iLhkmTH8O5mXpbuvHX9v-21" target="iLhkmTH8O5mXpbuvHX9v-9" edge="1">
          <mxGeometry width="50" height="50" relative="1" as="geometry">
            <mxPoint x="2244" y="724" as="sourcePoint" />
            <mxPoint x="2244.2" y="694.0799999999999" as="targetPoint" />
          </mxGeometry>
        </mxCell>
        <mxCell id="iLhkmTH8O5mXpbuvHX9v-25" value="" style="ellipse;whiteSpace=wrap;html=1;aspect=fixed;strokeWidth=1;fillColor=none;" parent="1" vertex="1">
          <mxGeometry x="1830" y="710" width="10" height="10" as="geometry" />
        </mxCell>
        <mxCell id="iLhkmTH8O5mXpbuvHX9v-26" value="" style="endArrow=none;html=1;rounded=0;exitX=0.5;exitY=0;exitDx=0;exitDy=0;entryX=0.295;entryY=1.008;entryDx=0;entryDy=0;entryPerimeter=0;" parent="1" source="iLhkmTH8O5mXpbuvHX9v-25" target="4iwTf2Q5Y9JTk8ooHyW_-135" edge="1">
          <mxGeometry width="50" height="50" relative="1" as="geometry">
            <mxPoint x="1844" y="709.98" as="sourcePoint" />
            <mxPoint x="1835" y="690" as="targetPoint" />
          </mxGeometry>
        </mxCell>
        <mxCell id="iLhkmTH8O5mXpbuvHX9v-27" value="Giacenza" style="text;html=1;align=center;verticalAlign=middle;resizable=0;points=[];autosize=1;strokeColor=none;fillColor=none;" parent="1" vertex="1">
          <mxGeometry x="1802" y="717" width="70" height="20" as="geometry" />
        </mxCell>
      </root>
    </mxGraphModel>
  </diagram>
</mxfile>
